<svg width="800" height="255" viewBox="0 0 800 255" fill="none" xmlns="http://www.w3.org/2000/svg">
<g clip-path="url(#clip0_2299_62)">
<path d="M56.4806 0.219971L97.8706 96.12H166.611V99.81H148.871L178.431 169.15C184.241 152.16 193.391 135.73 199.501 118.98C205.031 103.81 203.281 98.85 185.831 99.82V96.13H225.011C224.861 96.96 225.251 99.57 225.011 99.81C224.741 100.07 219.201 100.45 217.611 100.91C212.391 102.43 210.611 104.44 207.891 108.91L170.681 195.73L168.491 194.96L143.721 139.65L120.841 195.39L118.621 195.69L77.9205 99.82H58.7005V96.13H76.4406L63.0205 63.05C53.8705 63.63 42.8206 61.86 33.9006 62.89C32.6106 63.04 32.2505 62.95 31.4205 64.1C30.4705 65.43 25.6005 77.47 24.8705 79.69C19.9305 94.82 24.6905 96.95 39.4905 96.12V99.82H0.310547V96.13C8.66055 96.51 14.1305 93.45 18.1905 86.31L54.2705 0.229973H56.4905L56.4806 0.219971ZM34.3105 57.77H60.1805L47.9806 26.78L34.3105 57.77ZM127.071 99.82H100.091L127.821 167.69L130.751 162.5L142.151 134.1L127.071 99.81V99.82Z" fill="#E98A98"/>
<path d="M522.16 21.62V186.13H549.51V100.55H532.14C531.06 100.55 530.65 96.51 531.03 96.12C531.74 95.39 548.35 96.33 551.39 96.15C557.87 95.76 562.96 94.55 568.73 91.69V186.12H599.04V100.54H581.3V96.11H606.8C607.11 96.11 611.77 95.21 612.37 95.03C614.76 94.31 615.95 92.09 618.26 91.68V113.07C624.15 104.93 630.54 96.34 640.45 92.8C652.21 88.6 672.53 90.88 679.19 102.79C679.94 104.14 682.56 110.89 682.56 111.96V186.1H699.19C700.32 186.1 700.49 189.47 700.3 190.53H645.6V186.1H663.34V109.01C663.34 108.04 661.98 103.22 661.49 102.01C656.37 89.37 637.44 96.64 630.08 103.85C628.08 105.81 618.25 119.65 618.25 121.55V186.1H634.14C635.27 186.1 635.44 189.47 635.25 190.53H502.94V174.3L499.23 179.81C470.72 211.98 428.3 182.47 426.77 145.19C425.17 106.11 469.88 68.07 499.11 106.92L502.94 113.8V31.18H485.57C484.1 31.18 484.1 26.75 485.57 26.75H511.44C511.77 26.75 516.84 25.03 517.51 24.69C519.33 23.74 520.09 21.66 522.16 21.59V21.62ZM465.79 95.56C460.06 96.52 455.6 100.85 453.28 105.94C447.4 118.82 447.6 158.14 450.81 172.13C456.75 198.05 490.34 192.13 499.62 172.1C504.36 161.87 504.27 130.62 501.1 119.72C496.54 104.03 482.78 92.7 465.79 95.55V95.56Z" fill="#2A2A2A"/>
<path d="M409.071 186.87H424.591V190.56H389.851V175.07C386.031 180.1 383.031 184.75 377.521 188.22C351.761 204.42 321.021 182.02 315.531 155.18C307.621 116.45 343.731 71.03 381.371 100.53L389.841 113.1V31.21H372.101V27.52H390.211C392.691 27.52 399.331 26.59 401.831 25.84C404.571 25.01 406.851 23.34 409.061 21.62V186.87H409.071ZM353.451 95.58C347.331 96.46 342.511 101.19 340.191 106.69C334.401 120.43 334.211 163.62 339.761 177.46C347.311 196.3 374.821 190.59 384.541 176.03C391.471 165.64 390.991 139.35 389.831 126.75C388.131 108.32 372.751 92.81 353.451 95.58Z" fill="#2A2A2A"/>
<path d="M771.849 99.6501C776.559 91.3201 794.69 86.1801 798.77 97.0701C805.17 114.16 775.479 114.33 784.559 95.3901C783.069 94.2301 773 100.79 773.59 103.76C773.69 104.29 778.22 110.41 779.21 112.9C789.39 138.59 766.19 162.51 740.59 160.29C730.45 159.41 726.7 153.63 714.88 158.26C704.1 162.48 702.469 177.79 714.039 179.42C731.239 181.84 753.719 177.9 771.619 179.49C798.699 181.91 796.819 216.37 785.169 233.56C769.919 256.06 731.859 261.61 709.659 247.23C688.129 233.28 698 205.94 719.51 198.65L710.859 195.86C695.169 184.59 699.539 151.7 722.469 153.65C722.749 152.42 722.069 152.16 721.349 151.45C712.469 142.85 706.329 139.54 706.919 125.21C708.039 98.0001 740.479 82.1901 763.619 95.2501C765.829 96.5001 769.799 100.81 771.849 99.6401V99.6501ZM740.02 95.5601C722.72 98.4501 723.8 136.36 729.33 147.93C734.32 158.38 752.91 159.02 758.84 149.75C763.67 142.18 763.719 113.18 760.749 104.77C757.519 95.6101 748.9 94.0801 740.02 95.5601ZM728.2 198.11C713.32 200.42 707.649 214.88 709.249 228.47C713.579 265.1 791.809 254.24 786.789 210.1C786.069 203.75 781.559 200.52 775.719 199.01C768.309 197.1 736.13 196.87 728.2 198.1V198.11Z" fill="#2A2A2A"/>
<path d="M244.97 133.75V165.84C244.97 167.71 246.96 174.98 247.8 177.03C250.65 184.06 257.01 188.41 264.57 189.06C281.41 190.52 295 180.95 300.98 165.67C301.69 163.85 302.35 158.9 302.98 158.07C303.67 157.16 307.19 156.41 307.07 158.45C306.41 170.36 295.71 184.62 285.04 189.59C236.18 212.37 203.21 144.86 236.46 105.7C260.47 77.42 296.42 93.48 304.35 125.74C304.68 127.09 306.3 133.74 303.73 133.74H244.97V133.75ZM244.97 129.32H282.3C283.8 129.32 283.44 124.23 283.4 123.05C283.12 116.07 281.92 105.23 277.05 99.88C271.3 93.57 259.06 93.89 252.75 99.09C248.82 102.33 244.97 111.53 244.97 116.41V129.32Z" fill="#2A2A2A"/>
<path d="M187.321 84.32C183.961 90.17 174.531 89.26 172.521 82.84C168.711 86.66 163.081 92.03 159.951 84.32C153.511 90.33 144.161 89.45 142.601 79.9C137.871 86.59 131.031 91.55 123.261 85.55L120.061 79.17C115.611 92 97.1206 91.18 98.6106 75.84C99.4106 67.67 108.901 59.21 117.291 60.89C125.821 62.6 121.241 72.15 116.711 68.11C114.581 66.21 117.341 63.64 115.221 62.2C106.671 62.7 102.801 78.04 104.851 84.37C106.321 88.88 112.711 85.93 115.231 83.59C120.981 78.25 120.891 70.37 125.931 65.49C129.221 62.3 134.851 60.08 139.461 60.9C146.071 62.08 144.701 71.14 139.271 68.5C135.891 66.86 140.641 61.84 136.121 62.33C128.221 63.2 123.241 83.72 128.161 86.19C132.311 88.27 136.861 83.87 139.271 81.02C144.521 74.82 142.661 68.01 151.601 63.08C155.771 60.78 162.471 58.45 164.401 64.41C166.361 61.5 167.641 62.07 171.041 62.2C171.901 63 164.811 81.41 164.421 84.74C164.231 86.4 165.681 86.07 166.821 85.65C167.231 85.5 171.791 81.29 171.791 80.95C171.791 79.55 170.941 78.51 171.211 76.05C172.261 66.69 186.111 54.46 193.581 64.39C194.721 64.44 198.151 48.48 199.141 46.34L195.441 44.87C197.911 42.81 201.991 44.14 205.041 43.02L193.221 85.8C200.281 85.8 199.211 79.3 200.191 74.69C201.961 66.42 215.931 55.26 222.381 62.96C228.891 70.73 212.741 77.39 206.501 74.32C203.681 82.31 206.771 90.87 216.081 84.64C217.931 83.4 219.511 79.76 222.041 81C217.481 86.11 213.441 89.87 205.981 87.44C202.621 86.34 202.541 83.4 199.881 82.85C198.531 88.22 188.821 91.25 188.771 83.58C188.571 83.35 187.761 84.16 187.301 84.32C188.481 82.27 192.981 69.6 193.011 67.58C193.041 65.31 190.651 62.4 188.361 62.19C181.881 61.6 177.441 72.9 176.961 78.05C175.911 89.24 179.541 87 187.301 84.32H187.321ZM157.551 62.32C150.441 63.79 141.451 89.77 154.241 86.36C158.791 85.14 163.491 72.4 164.101 68.12C164.601 64.61 161.181 61.58 157.551 62.33V62.32ZM218.181 63.11C213.741 58.68 206.991 68.49 206.531 72.51C212.121 76.73 222.741 67.66 218.181 63.11Z" fill="#2A2A2A"/>
<path d="M234.62 60.72L233.15 65.88L238.55 62.05C244.07 59.49 248.36 60.57 247.94 67.36C249.3 66.42 249.75 64.93 251.28 63.69C253.23 62.11 255.99 60.47 258.58 60.73C270.48 61.91 256.46 79.69 258.66 85.81C264.38 85.83 269.17 69.25 270.04 64.64C270.32 63.15 268.81 63.87 268.64 63.67C267.73 62.57 275.62 60.97 276.76 60.73L269.42 84.61C270.1 87.17 273.74 84.79 274.91 83.59C277.45 81 275.58 76.49 277.36 72.01C280.09 65.12 293.34 55.08 298.21 64.41C300.17 61.5 301.45 62.07 304.85 62.2L298.19 85.42C300.8 86.88 303.6 83.71 304.13 81.38C308.32 81.18 302.3 86.89 301.57 87.31C295.19 90.98 293.92 83.54 293.4 83.58C291.17 87.56 286.27 89.04 281.9 87.68C280.01 87.09 278.69 84.31 277.15 84.31C275.72 84.31 272.72 87.74 269.66 87.98C265.25 88.34 264.41 84.35 263.84 84.33C263.45 84.32 261.12 87.94 257.18 88.02C247.62 88.21 257.54 70.36 258.14 66.06C259.45 56.67 249.08 67.83 247.18 71.38C245.28 74.93 243.71 84.82 242.42 86.55C241.42 87.89 238.38 87.1 236.86 87.27C235.89 86.32 243.23 67.35 242.8 63.31C242.53 60.72 238.55 63.99 237.58 64.76C230.59 70.31 229.02 78.98 227.22 87.25L221.34 87.28L227.99 63.68L225.03 62.21C228.4 62.66 231.43 61.44 234.63 60.73L234.62 60.72ZM291.34 62.31C285.19 63.42 279.91 80.18 282.29 85.07C283.18 86.91 286.24 86.84 288.03 86.36C294.15 84.72 303.38 60.13 291.34 62.31Z" fill="#2A2A2A"/>
<path d="M555.97 48.35C575.37 44.76 575.221 74.57 556.581 71.73C544.581 69.9 544.47 50.47 555.97 48.35Z" fill="#2A2A2A"/>
<path d="M332.93 84.32C327.19 93.94 312.68 85.34 318 72C320.99 64.51 333.26 55.56 339.21 64.4C340.06 64.05 344.51 49 344.75 47.04C345.04 44.65 339.97 47.11 341.07 44.86C342.08 42.81 348.47 44.33 350.67 43.01L338.86 84.71C338.42 88.1 345.25 82.43 344.02 85.41C342.55 88.98 333.44 89.63 334.41 83.58C334.21 83.35 333.39 84.16 332.94 84.32C334.04 82.48 338.75 69.43 338.83 67.65C338.93 65.1 336.52 62.35 334 62.2C325.99 61.72 321.45 77.73 322.62 83.94C323.59 89.08 329.97 85.36 332.95 84.33L332.93 84.32Z" fill="#2A2A2A"/>
<path d="M384.67 43.01C381.62 57.49 375.73 71.36 372.85 85.79C376.54 86.42 378.14 82.59 380.61 80.63C381.71 87.22 366.99 91.92 367.69 82.56L378.75 46.31L375.06 45.95V43.74L384.67 43V43.01Z" fill="#2A2A2A"/>
<path d="M352.159 73.99C348.169 89.64 358.549 89.71 366.929 79.9C367.059 83.03 361.709 87.29 359.009 87.84C341.599 91.44 341.679 66.82 357.869 61.62C363.779 59.72 371.259 61.1 368.819 68.87C367.199 74.02 356.609 76.2 352.159 73.99ZM363.799 63.11C359.939 59.24 351.819 68.04 353.199 72.56C358.369 76.38 368.359 67.68 363.799 63.11Z" fill="#2A2A2A"/>
<path d="M280.35 45.3299C282.1 48.0399 277.29 54.3299 274.47 50.8099C271.92 47.6299 278.48 42.4199 280.35 45.3299Z" fill="#2A2A2A"/>
</g>
<defs>
<clipPath id="clip0_2299_62">
<rect width="800" height="255" fill="white"/>
</clipPath>
</defs>
</svg>
