<?xml version="1.0" encoding="UTF-8"?>
<svg id="Livello_1" data-name="Livello 1" xmlns="http://www.w3.org/2000/svg" viewBox="0 0 1080 1080">
  <defs>
    <style>
      .cls-1 {
        fill: #fff;
      }
    </style>
  </defs>
  <path class="cls-1" d="M938.22,190.14c285.87,325.83,78.68,842.53-353.02,877.98C167.55,1102.42-123.54,660.41,72.49,291.08,245.59-35.01,693.42-88.87,938.22,190.14ZM884.96,222.47C653.85-25.34,247.64,39.7,107.46,346.66c-147.62,323.25,100.56,688.9,455.78,669.59,399.47-21.71,594.69-501.09,321.72-793.79Z"/>
  <g>
    <path class="cls-1" d="M818.49,732.58c-.53.56-.95,12.78-1.45,15.28-2.49,12.47-8.79,29.57-18.18,38.4-6.63,6.23-26.52,14.36-35.36,14.36h-65.41v-104.93h28.36c1.12,0,10.13,2.57,11.81,3.23,7.97,3.15,13.55,10.46,16.24,18.42,1.83,5.41,2.51,22.2,3.66,23.8,1.23,1.71,9.39.78,9.39-1.06v-96.28c-1.96.39-8.22-.65-9.14.13-.86.73-2.55,18.01-3.91,22.04-2.38,7.03-7.9,14.56-14.73,17.62-1.08.48-8.23,2.88-8.69,2.88h-32.99v-98.01h65.41c2.58,0,16.09,3.89,19.1,5.19,18.89,8.11,26.98,28.7,28.95,47.86,2.4-1.21,8.31.81,9.07-1.88l-3.29-60.4h-196.23c-2.43,0-2.43,9.22,0,9.22h35.31v212.17h-32.99c-6.65,0-4.06,9.22-2.32,9.22h204.33l2.32-77.26c-1.7.27-8.91-.38-9.27,0Z"/>
    <path class="cls-1" d="M707.3,559.03c17.62-13.45,43.31-23.04,59.65-37.48,13.84-12.23,4.3-30.81-13.09-25.72-5.9,1.73-14.95,13.13-19.39,18.16-11.46,12.98-21.3,27.52-33.52,39.9-1.82,3.84,2.61,7.12,6.35,5.15Z"/>
    <path class="cls-1" d="M614.16,627.65c-17.48,1.6-38.63-2.12-55.63-.05-4.94.6-4.08,2.46-4,6.97h27.21c.12,0,1.74,1.61,1.74,1.73v112.43c-1.22-.16-2.11-1.46-2.82-2.38-24.88-32.49-46.68-72.39-70.31-106.39-2.83-4.07-6.35-8.56-9.64-12.3h-65.41v6.92h26.05c.12,0,1.74,1.61,1.74,1.73v158.55h-25.47c-.38,0-2.08,6.92.58,6.92h60.78v-6.92h-28.94v-159.13l113.4,168.98c1.2,2.56,7,1.92,7-.05v-170.08h26.63c.04-2.88.86-6.57-2.89-6.92Z"/>
    <path class="cls-1" d="M588.07,301.86l-85.05,226.63h-31.84v9.22h84.51v-9.22h-41.68l23.69-62.35,72.27.22,22.13,62.13h-37.05v9.22h109.98v-9.22h-30.68l-80.5-227.12-5.79.49ZM540.65,456.99l32.99-92.26,32.99,92.26h-65.99Z"/>
    <path class="cls-1" d="M444.68,593.49c2.34-2.98,11.11-30.19,13.2-36.18,33.66-96.54,64.45-194.16,98.4-290.59,2.85-8.09,5.83-16.33,9.27-24.21h53.25c2.57,0,2.57-13.84,0-13.84h-125.61c.23,2.46-1.01,13.84,1.74,13.84h56.15l-86.26,250.23-93.18-250.23h53.83c2.75,0,1.51-11.38,1.74-13.84h-171.34c.58,3.13-1.63,12.53,1.9,13.68l45.04-.54,2.18,1.91,132.05,349.35c1.3,1.54,6.46,1.96,7.66.43Z"/>
  </g>
  <g>
    <path class="cls-1" d="M326.31,868.49l5.49,13.29,8.3-22.27h-4.41v-1.15h8.82v1.15h-3.12l-11.19,29.75h-.79l-5.79-13.98-5.65,13.98h-.84l-12.16-29.75h-3.39v-1.15h31.63v1.15h-3.26l-3.64,8.99ZM319.64,882.05l3.32-8.33-5.83-14.21h-6.72l9.22,22.54ZM322.65,859.51l3.05,7.41,3.01-7.41h-6.06Z"/>
    <path class="cls-1" d="M358.6,878.36h-11.44c-.11,4.44.14,7.18.75,8.21s1.68,1.54,3.23,1.54c3.2,0,5.36-1.85,6.49-5.54h.97c-.5,2.24-1.44,3.89-2.83,4.95s-2.93,1.6-4.63,1.6c-2.43,0-4.54-.9-6.33-2.69s-2.69-4.05-2.69-6.77.88-4.86,2.63-6.67,3.79-2.7,6.12-2.7c2.02,0,3.79.71,5.3,2.14s2.33,3.4,2.43,5.92ZM347.16,877.34h6.58c.12-1.07.18-1.88.18-2.43,0-2.4-1.09-3.6-3.28-3.6-1.09,0-1.94.29-2.55.87s-.93,1.36-.93,2.35v2.81Z"/>
    <path class="cls-1" d="M380.53,858.02v29.39h3.05v1.15h-2.53c-1.6,0-3.29.09-5.06.27v-3.69h-.09c-1.21,2.66-3.14,3.99-5.79,3.99-2.13,0-4-.94-5.62-2.83s-2.43-4.02-2.43-6.41c0-2.55.86-4.79,2.57-6.71s3.73-2.88,6.05-2.88,4.11,1.06,5.22,3.18h.09v-13.96h-4.11v-1.15h4.11c1.52,0,3.04-.11,4.54-.34ZM370.81,871.31c-1.64,0-2.67.61-3.09,1.84s-.62,3.7-.62,7.44c0,3.23.26,5.26.79,6.1s1.38,1.26,2.55,1.26c1.27,0,2.38-.43,3.35-1.28s1.6-1.83,1.9-2.93.45-2.87.45-5.34-.47-4.11-1.42-5.3-2.25-1.79-3.91-1.79Z"/>
    <path class="cls-1" d="M405.11,858.02v29.39h3.05v1.15h-2.53c-1.6,0-3.29.09-5.06.27v-3.69h-.09c-1.21,2.66-3.14,3.99-5.79,3.99-2.13,0-4-.94-5.62-2.83s-2.43-4.02-2.43-6.41c0-2.55.86-4.79,2.57-6.71s3.73-2.88,6.05-2.88,4.11,1.06,5.22,3.18h.09v-13.96h-4.11v-1.15h4.11c1.52,0,3.04-.11,4.54-.34ZM395.38,871.31c-1.64,0-2.67.61-3.09,1.84s-.62,3.7-.62,7.44c0,3.23.26,5.26.79,6.1s1.38,1.26,2.55,1.26c1.27,0,2.38-.43,3.35-1.28s1.6-1.83,1.9-2.93.45-2.87.45-5.34-.47-4.11-1.42-5.3-2.25-1.79-3.91-1.79Z"/>
    <path class="cls-1" d="M418.06,870.52v16.89h2.96v1.15h-10.51v-1.15h3.17v-15.4h-3.17v-1.15h3.21c1.54,0,2.98-.11,4.34-.34ZM413.52,861.85c0-.66.24-1.23.73-1.71s1.07-.72,1.73-.72,1.24.24,1.73.71.73,1.05.73,1.72-.24,1.29-.72,1.76-1.06.7-1.74.7-1.26-.24-1.74-.71-.72-1.05-.72-1.75Z"/>
    <path class="cls-1" d="M426.4,887.41v-15.4h-3.21v-1.15h2.06c2.03,0,3.88-.11,5.54-.34v4.39h.09c1.55-3.08,3.75-4.62,6.58-4.62,1.33,0,2.42.34,3.27,1.01s1.43,1.47,1.74,2.39.46,2.33.46,4.26v9.46h3.53v1.15h-10.94v-1.15h3.01v-11.26c0-1.73-.11-2.92-.33-3.58s-.79-.99-1.71-.99c-1.46,0-2.78.75-3.95,2.24s-1.75,3.5-1.75,6.02v7.57h2.96v1.15h-10.56v-1.15h3.21Z"/>
    <path class="cls-1" d="M463.91,873.2c.89,1.25,1.33,2.48,1.33,3.69,0,2.06-.83,3.61-2.5,4.67s-3.03,1.59-4.08,1.59l-1.13.07c-.53,0-1.24-.04-2.15-.12s-1.39-.12-1.45-.12c-.59,0-1.27.27-2.06.8s-1.18,1.1-1.18,1.7c0,.53.2.92.61,1.19s1.42.41,3.05.41l7.73-.32c1.61,0,2.92.51,3.93,1.53s1.51,2.48,1.51,4.37c0,2.21-.91,4.06-2.74,5.57-1.82,1.51-4.35,2.26-7.57,2.26-2.5,0-4.49-.5-5.96-1.5s-2.2-2.17-2.2-3.52c0-.83.23-1.52.7-2.08s1.51-1.31,3.14-2.24c-2.5-.6-3.75-1.97-3.75-4.12,0-2.88,1.56-4.51,4.68-4.89v-.09c-2.41-1.14-3.62-2.86-3.62-5.16,0-1.86.75-3.43,2.24-4.7s3.25-1.9,5.27-1.9c2.2,0,4.04.75,5.52,2.25,1.09-1.5,2.29-2.25,3.62-2.25.51,0,.96.17,1.33.52s.57.82.57,1.42c0,.53-.17.94-.5,1.25s-.69.46-1.09.46c-.57,0-1-.26-1.28-.79s-.52-.79-.71-.79c-.38,0-.81.28-1.29.83ZM454.24,891.15c-1.43.9-2.15,2.24-2.15,4.01,0,2.79,1.91,4.19,5.74,4.19,2.44,0,4.46-.57,6.05-1.71s2.39-2.48,2.39-4.01c0-.92-.4-1.62-1.2-2.12s-1.7-.74-2.69-.74c-.39,0-1.27.05-2.65.14s-2.39.14-3.05.16l-2.44.09ZM457.65,871.44c-1.46,0-2.37.37-2.71,1.1s-.52,1.97-.52,3.69c0,2.49.16,4.1.49,4.82s1.25,1.08,2.79,1.08,2.51-.37,2.83-1.1.47-2.53.47-5.38c0-1.77-.28-2.92-.85-3.43s-1.4-.78-2.5-.78Z"/>
    <path class="cls-1" d="M498.55,871.87l5.29,8.38c.06.2.3.59.72,1.17,1.9-2.57,3.04-6.07,3.44-10.52h-4.41v-1.17h8.95v1.17h-3.48c-.3,4.8-1.58,8.62-3.84,11.44l3.66,5.07h3.37v1.15h-9.07c-.66-.95-1.27-1.74-1.81-2.39-2.61,2.06-5.51,3.09-8.7,3.09s-5.65-.83-7.4-2.49-2.63-3.66-2.63-6c0-2.21.78-4.19,2.35-5.95s3.81-3.08,6.72-3.96c-1.73-2.94-2.6-5.19-2.6-6.73s.71-3.04,2.14-4.27,3.2-1.84,5.32-1.84,3.87.5,5.38,1.49,2.26,2.28,2.26,3.87c0,1.31-.5,2.45-1.5,3.45s-2.8,1.96-5.39,2.91l1.24,2.14ZM492.26,871.83c-3.21,1.2-4.82,2.87-4.82,5.02,0,2,.81,4.28,2.43,6.85s3.49,3.85,5.62,3.85c1.64,0,3.42-.77,5.34-2.3-3.36-4.8-6.22-9.28-8.57-13.42ZM496.74,868.81c1.46-.59,2.42-1.28,2.86-2.09s.67-1.91.67-3.29c0-2.84-1.21-4.26-3.62-4.26-.92,0-1.68.24-2.28.73s-.9,1.11-.9,1.86c0,1.34,1.09,3.69,3.28,7.05Z"/>
    <path class="cls-1" d="M537.78,859.51v12.95h2.74c.96,0,1.78-.09,2.45-.28s1.27-.69,1.81-1.52.84-2.12.92-3.87h1.18v12.79h-1.18c-.12-2.43-.59-4.03-1.41-4.81s-2.08-1.16-3.76-1.16h-2.74v13.8h6.17c3.5,0,5.92-.73,7.27-2.2s2.15-3.72,2.41-6.77h1.15l-.29,10.11h-26.88v-1.15h4.82v-27.9h-4.82v-1.15h25.77l.52,8.06h-1.15c-.39-2.45-1.2-4.21-2.42-5.29s-3.26-1.62-6.1-1.62h-6.44Z"/>
    <path class="cls-1" d="M578.9,872.01l-8.57,17.25h-.59l-8.7-17.25h-2.74v-1.15h11.1v1.15h-3.41l5.92,11.98,5.83-11.98h-3.41v-1.15h7.35v1.15h-2.78Z"/>
    <path class="cls-1" d="M599.05,878.36h-11.44c-.11,4.44.14,7.18.75,8.21s1.68,1.54,3.23,1.54c3.2,0,5.36-1.85,6.49-5.54h.97c-.5,2.24-1.44,3.89-2.83,4.95s-2.93,1.6-4.63,1.6c-2.43,0-4.54-.9-6.33-2.69s-2.69-4.05-2.69-6.77.88-4.86,2.63-6.67,3.79-2.7,6.12-2.7c2.02,0,3.79.71,5.3,2.14s2.33,3.4,2.43,5.92ZM587.61,877.34h6.58c.12-1.07.18-1.88.18-2.43,0-2.4-1.09-3.6-3.28-3.6-1.09,0-1.94.29-2.55.87s-.93,1.36-.93,2.35v2.81Z"/>
    <path class="cls-1" d="M605.15,887.41v-15.4h-3.21v-1.15h2.06c2.03,0,3.88-.11,5.54-.34v4.39h.09c1.55-3.08,3.75-4.62,6.58-4.62,1.33,0,2.42.34,3.27,1.01s1.43,1.47,1.74,2.39.46,2.33.46,4.26v9.46h3.53v1.15h-10.94v-1.15h3.01v-11.26c0-1.73-.11-2.92-.33-3.58s-.79-.99-1.71-.99c-1.46,0-2.78.75-3.95,2.24s-1.75,3.5-1.75,6.02v7.57h2.96v1.15h-10.56v-1.15h3.21Z"/>
    <path class="cls-1" d="M635.2,865.72v5.13h5.36v1.15h-5.36v11.15c0,1.64.11,2.75.33,3.36s.8.9,1.75.9c.72,0,1.42-.24,2.09-.72s1.18-1.22,1.53-2.23h.97c-.69,2.91-2.8,4.37-6.31,4.37-1.48,0-2.56-.27-3.26-.8s-1.12-1.19-1.28-1.97-.24-1.84-.24-3.18v-10.88h-4.02v-1.15h4.02v-4.75c1.49,0,2.96-.13,4.41-.38Z"/>
    <path class="cls-1" d="M678.91,858.02v8.96h-.97c-1.06-5.45-3.78-8.17-8.18-8.17-2.37,0-4.09.92-5.18,2.77s-1.63,5.73-1.63,11.67c0,4.88.23,8.2.7,9.95s1.28,3.01,2.43,3.77,2.42,1.14,3.81,1.14c1.81,0,3.51-.68,5.1-2.04s2.82-3.54,3.7-6.54h1.06l-.36,9.21h-.93c-.35-.96-.89-1.77-1.63-2.43-2.38,1.97-4.83,2.95-7.35,2.95-3.2,0-6.11-1.51-8.75-4.53-2.64-3.02-3.96-6.71-3.96-11.08s1.3-8.24,3.89-11.34c2.59-3.1,5.59-4.65,9-4.65,2.62,0,4.94.94,6.94,2.81.59-.93,1.03-1.75,1.33-2.45h.97Z"/>
    <path class="cls-1" d="M686.43,887.41v-15.4h-3.66v-1.15h3.71c1.9,0,3.35-.1,4.34-.29v4.26h.09c1.06-2.84,2.62-4.26,4.68-4.26.9,0,1.63.27,2.18.82s.83,1.21.83,1.99c0,.72-.22,1.3-.67,1.75s-1.02.66-1.73.66c-1.3,0-1.94-.65-1.94-1.94l.09-.97c0-.35-.16-.52-.47-.52-.5,0-1.13.67-1.9,2s-1.15,3.38-1.15,6.13v6.91h3.75v1.15h-11.8v-1.15h3.66Z"/>
    <path class="cls-1" d="M717.5,878.36h-11.44c-.11,4.44.14,7.18.75,8.21s1.68,1.54,3.23,1.54c3.2,0,5.36-1.85,6.49-5.54h.97c-.5,2.24-1.44,3.89-2.83,4.95s-2.93,1.6-4.63,1.6c-2.43,0-4.54-.9-6.33-2.69s-2.69-4.05-2.69-6.77.88-4.86,2.63-6.67,3.79-2.7,6.12-2.7c2.02,0,3.79.71,5.3,2.14,1.51,1.43,2.33,3.4,2.43,5.92ZM706.06,877.34h6.58c.12-1.07.18-1.88.18-2.43,0-2.4-1.09-3.6-3.28-3.6-1.09,0-1.94.29-2.55.87s-.93,1.36-.93,2.35v2.81Z"/>
    <path class="cls-1" d="M732.72,878.45v-2.3c0-1.88-.15-3.11-.46-3.69s-1.14-.88-2.5-.88c-2.44,0-3.66.47-3.66,1.4,0,.27.1.57.31.89s.31.7.31,1.14c0,.62-.2,1.08-.61,1.41s-.87.48-1.38.48c-.66,0-1.18-.21-1.54-.62s-.54-.9-.54-1.45c0-1.2.7-2.21,2.11-3.03s3.37-1.23,5.89-1.23c2.02,0,3.5.23,4.43.7s1.51,1.04,1.73,1.73.33,1.67.33,2.93v8.29c0,1.22.09,1.97.26,2.27s.44.45.8.45c.54,0,1.07-.37,1.58-1.1h.54c-.39,2.19-1.67,3.29-3.84,3.29s-3.35-1.2-3.75-3.6c-1.76,2.4-3.83,3.6-6.19,3.6-1.57,0-2.82-.42-3.75-1.27s-1.4-1.89-1.4-3.12c0-3.83,3.78-5.92,11.35-6.28ZM732.72,881.91v-2.43c-2.79.11-4.63.52-5.52,1.25s-1.33,1.78-1.33,3.16c0,1.01.27,1.79.8,2.34s1.15.83,1.84.83c.89,0,1.69-.3,2.41-.89s1.19-1.19,1.44-1.79.36-1.43.36-2.48Z"/>
    <path class="cls-1" d="M750.8,865.72v5.13h5.36v1.15h-5.36v11.15c0,1.64.11,2.75.33,3.36s.8.9,1.75.9c.72,0,1.42-.24,2.09-.72s1.18-1.22,1.53-2.23h.97c-.69,2.91-2.8,4.37-6.31,4.37-1.48,0-2.56-.27-3.26-.8s-1.12-1.19-1.28-1.97-.24-1.84-.24-3.18v-10.88h-4.02v-1.15h4.02v-4.75c1.49,0,2.96-.13,4.41-.38Z"/>
    <path class="cls-1" d="M760.66,879.66c0-2.6.9-4.81,2.69-6.63s4.02-2.74,6.67-2.74,4.79.87,6.59,2.62,2.7,3.94,2.7,6.56-.93,4.97-2.8,6.83-4.08,2.8-6.62,2.8-4.67-.91-6.49-2.74-2.74-4.06-2.74-6.72ZM774.23,879.66c0-2.76-.09-4.59-.28-5.47s-.61-1.59-1.27-2.11-1.56-.78-2.7-.78c-1.09,0-1.98.27-2.68.8s-1.13,1.24-1.3,2.13-.25,2.71-.25,5.47.1,4.62.31,5.52.65,1.61,1.33,2.12,1.55.77,2.59.77,1.93-.26,2.63-.78,1.15-1.24,1.33-2.16.28-2.76.28-5.51Z"/>
    <path class="cls-1" d="M785.87,887.41v-15.4h-3.66v-1.15h3.71c1.9,0,3.35-.1,4.34-.29v4.26h.09c1.06-2.84,2.62-4.26,4.68-4.26.9,0,1.63.27,2.18.82s.83,1.21.83,1.99c0,.72-.22,1.3-.67,1.75s-1.02.66-1.73.66c-1.3,0-1.94-.65-1.94-1.94l.09-.97c0-.35-.16-.52-.47-.52-.5,0-1.13.67-1.9,2s-1.15,3.38-1.15,6.13v6.91h3.75v1.15h-11.8v-1.15h3.66Z"/>
  </g>
</svg>