<svg width="593" height="277" viewBox="0 0 593 277" fill="none" xmlns="http://www.w3.org/2000/svg">
<g clip-path="url(#clip0_2299_31)">
<path d="M363.429 233.16C363.479 233.49 365.209 234.49 364.609 234.92C358.089 233.38 340.739 236.96 336.299 233.13C334.299 231.4 334.909 228.27 332.739 227.85C328.639 239.9 307.239 238.32 304.659 225.8C300.529 205.73 321.959 200.13 333.879 213.08C333.869 213.6 325.539 218.42 325.029 218.37C324.029 218.27 323.779 215.15 322.459 214.81C311.609 212.05 314.329 232.14 322.799 225.57C324.159 224.51 324.309 222.05 324.479 221.93C324.899 221.62 332.469 228 333.889 226.66C334.049 226.51 334.019 223.57 334.779 222.25C338.009 216.66 347.079 216.94 352.789 216.02C349.229 210.61 341.339 218.7 335.079 216.02C333.859 203.12 363.409 205.11 363.409 211.89C363.409 218.25 362.599 227.23 363.409 233.14L363.429 233.16ZM352.789 221.95C352.519 221.66 345.809 223.79 345.229 224.2C339.779 228.13 353.979 230.84 352.789 221.95Z" fill="#111212"/>
<path d="M356.419 62.4801C356.119 62.2601 356.249 59.7601 354.449 59.1301C348.389 57.0101 347.399 61.8101 348.009 66.7201C349.179 76.1701 355.839 67.2701 357.889 67.4401C359.589 67.5901 364.759 71.9301 365.779 70.8001C361.809 51.6201 383.619 43.1501 395.289 57.2301C395.279 57.8301 387.879 62.6501 386.509 62.6201C386.039 62.6201 383.739 56.2101 378.929 59.1601C377.719 59.9001 375.539 70.0401 380.559 70.8601C386.219 71.7801 384.889 66.9401 387.539 67.2101C390.759 67.5401 392.179 70.7501 395.279 70.8001C396.839 61.0301 406.359 61.5301 414.189 60.1601C410.629 54.7501 402.739 62.8401 396.489 60.1601C396.639 47.9701 422.159 47.9501 424.579 56.2801C426.399 62.5701 423.069 72.3401 425.999 79.0501C416.209 76.5201 400.569 84.1401 395.879 73.1401C386.259 82.2001 373.379 83.3901 366.379 70.8001C357.079 88.8501 328.839 78.7301 337.159 58.1101C341.249 47.9601 360.269 47.8501 365.759 57.2201C365.759 57.7601 357.209 63.0601 356.409 62.4801H356.419ZM414.189 66.0801C412.479 66.8101 406.019 68.1801 405.959 70.2101C405.859 73.7501 416.259 71.7501 414.189 66.0801Z" fill="#111212"/>
<path d="M381.149 199.5C382.679 201.03 377.559 210.1 385.879 207.77C387.869 216.64 381.039 213.92 380.009 214.9C379.589 215.3 379.489 225.06 381.059 226.15C386.629 230.03 386.459 222.05 388.559 219.9C391.439 216.94 400.599 216.77 404.759 216.02C401.199 210.61 393.309 218.7 387.049 216.02C387.339 203.97 412.609 203.48 415.139 212.14C416.969 218.41 413.619 228.22 416.559 234.91C406.859 232.46 391.019 239.84 386.449 229C386.119 236.13 381.919 235.48 375.799 234.91C364.599 233.87 371.359 222.27 369.409 215.56C369.139 214.64 362.139 214.44 364.599 207.76C372.919 210.09 367.799 201.02 369.329 199.49C369.749 199.07 380.729 199.07 381.149 199.49V199.5ZM404.739 221.94C403.029 222.67 396.569 224.04 396.509 226.07C396.409 229.61 406.809 227.61 404.739 221.94Z" fill="#111212"/>
<path d="M542.91 79.0699H532.28C531.64 74.8999 534.73 60.1599 528.15 60.1299C522.07 60.0999 527.5 76.1899 524.09 78.5599C522.06 79.9699 516.11 78.6599 513.38 79.0799C512.72 75.1299 515.54 61.3599 510.26 60.4099C502.64 59.0499 508.35 74.2699 505.79 77.9699C504.28 80.1399 497.25 78.6999 494.5 79.0799V51.9199C498.52 52.6199 504.48 49.7899 505.71 54.2799C511.56 45.0399 522.42 55.4099 523.43 55.4099C524.02 55.4099 527.65 50.3499 533.91 50.7899C536.14 50.9499 542.91 54.1699 542.91 56.0499V79.0799V79.0699Z" fill="#111212"/>
<path d="M335.09 95.6001V132.2C321.86 131.21 305.24 139.45 304.33 119.84C303.73 106.91 311.22 102.55 323.27 106.22C323.62 104.36 322.82 96.0401 323.27 95.5901C323.72 95.1401 333.09 95.9301 335.08 95.5901L335.09 95.6001ZM323.1 123.75C324.35 121.79 323.64 113.05 320.15 112.35C314.32 111.19 312.85 123.72 318.21 124.95C319.27 125.19 322.71 124.38 323.1 123.75Z" fill="#111212"/>
<path d="M457.889 42.46V79.06C444.379 77.77 427.499 84.3199 427.849 64.2899C428.039 53.0399 437.419 47.22 447.249 53.08V42.45H457.889V42.46ZM440.329 70.64C447.769 75.25 450.149 60.6299 444.079 59.1199C438.009 57.6099 438.179 69.31 440.329 70.64Z" fill="#111212"/>
<path d="M365.789 95.6001H376.419V106.22C388.529 102.56 395.919 106.91 395.359 119.85C394.539 139.06 378.839 131.51 365.779 132.21V95.6101L365.789 95.6001ZM383.219 113.58C377.719 107.61 372.479 123.22 379.599 124.99C385.049 126.35 386.199 116.81 383.219 113.58Z" fill="#111212"/>
<path d="M449.63 234.93H437.82V217.81C437.82 215.64 432.22 215.04 430.98 219.23C430.13 222.11 431.31 234.37 430.74 234.93H418.93V207.77C422.97 206.68 429.06 208.95 432.36 208.61C434.9 208.35 436.06 206.26 440.63 206.66C443.59 206.92 449.63 210 449.63 213.09V234.93Z" fill="#111212"/>
<path d="M333.91 79.07C324.52 76.6 304.17 84.8899 304.27 70.1999C304.35 58.5599 319.36 62.7699 322.1 60.1699C324.56 57.8299 319.29 57.51 317.9 57.74C315.67 58.1 316.33 59.94 315.38 60.16C310.34 61.33 302 61.2599 306.66 54.7899C311.35 48.2599 333.9 49.0199 333.9 58.4199V79.08L333.91 79.07ZM322.09 67.2599C320.12 66.2999 312.1 68.7699 315.02 71.9699C316.13 73.1799 322.96 70.9399 322.09 67.2599Z" fill="#111212"/>
<path d="M498.041 233.16C498.091 233.49 499.821 234.49 499.221 234.92C489.741 232.42 468.291 240.87 468.401 226.06C468.481 214.42 483.491 218.63 486.231 216.03C488.691 213.69 483.421 213.37 482.031 213.6C479.801 213.96 480.461 215.8 479.511 216.02C476.711 216.68 472.721 215.65 469.701 216.04C467.931 202.97 498.041 204.65 498.041 213.09C498.041 219.12 497.271 227.56 498.041 233.16ZM486.231 223.13C484.261 222.17 476.241 224.64 479.161 227.84C480.271 229.05 487.101 226.81 486.231 223.13Z" fill="#111212"/>
<path d="M591.32 77.2899C591.37 77.6199 593.1 78.6199 592.5 79.0499C583.02 76.5499 561.57 84.9999 561.68 70.1899C561.76 58.5499 576.77 62.7599 579.51 60.1599C581.97 57.8199 576.7 57.4999 575.31 57.7299C573.08 58.0899 573.74 59.9299 572.79 60.1499C569.99 60.8099 566 59.7799 562.98 60.1699C561.21 47.0999 591.32 48.7799 591.32 57.2199C591.32 63.2499 590.55 71.6899 591.32 77.2899ZM572.43 71.9799C574.28 73.8499 581.92 70.9899 579.5 66.0799C577.66 66.8499 569.35 68.8599 572.43 71.9799Z" fill="#111212"/>
<path d="M311.47 165.26C309.51 165.32 307.53 165.23 305.57 165.26C305.09 152.68 333.9 154.04 333.9 163.49V184.15C330.15 185.19 324.7 183 321.65 183.31C319.6 183.52 318.08 185.46 314.47 185.39C302.32 185.17 300.22 170.9 311.46 167.61C313.21 167.1 323.26 166.88 323.24 164.66C323.24 163.14 319.36 162.66 317.89 162.77C315.97 162.91 317.26 165.08 311.46 165.25L311.47 165.26ZM322.09 172.35C321.77 172.03 313.48 172.45 315.02 176.47C316.76 181 324.44 174.74 322.09 172.35Z" fill="#111212"/>
<path d="M492.131 121.57H473.241C473.811 127.64 479.751 124.84 483.271 122.79C484.541 123.81 491.881 124.51 490.941 126.86C486.951 136.9 461.391 137.06 460.681 119.62C459.791 97.95 494.591 99.44 492.141 121.56L492.131 121.57ZM480.321 115.66C480.781 111.86 474.781 108.92 473.251 112.73C471.401 117.32 477.931 115.37 480.321 115.66Z" fill="#111212"/>
<path d="M428.369 121.57H409.479C411.509 129.56 416.859 122.19 421.569 122.93C430.949 124.4 427.119 131.01 420.149 132.82C412.509 134.81 403.289 133.85 399.579 126.16C387.719 101.6 431.679 94.3101 428.379 121.57H428.369ZM416.559 115.66C419.309 113 411.899 107.75 409.489 113.91C408.389 116.71 416.289 115.92 416.559 115.66Z" fill="#111212"/>
<path d="M473.24 67.2599C471.16 69.3899 475.3 72.5899 478.31 71.8299C481.92 70.9099 480.03 66.3399 488.06 70.7599C496.38 75.3399 480.49 80.6099 475.06 80.3099C470.54 80.0499 463.58 76.3399 462.08 71.9399C453.33 46.2099 493.57 42.1699 492.13 67.2699C489.36 67.7699 473.9 66.5899 473.24 67.2699V67.2599ZM480.32 61.3499C480.01 55.8799 474.33 57.2599 472.07 60.7699L480.32 61.3499Z" fill="#111212"/>
<path d="M376.419 149.91C376.899 150.39 375.939 157.75 376.399 158.19C376.829 158.6 380.719 157.77 381.139 158.18C381.349 158.39 381.349 163.89 381.139 164.1C380.719 164.51 376.829 163.68 376.399 164.09C375.969 164.5 376.209 175 376.939 175.99C378.379 177.96 382.689 174.59 381.209 183.48C380.909 185.25 368.149 186.55 365.499 180.32C363.319 175.2 365.609 169.34 364.689 164.74C364.399 163.29 359.529 166.41 360.989 158.83C361.239 157.54 363.929 158.62 364.449 158.09C365.009 157.51 364.499 151.01 365.959 150.09C366.449 149.78 376.059 149.55 376.429 149.92L376.419 149.91Z" fill="#111212"/>
<path d="M442.54 95.5999V132.2H430.73V97.3699C430.73 94.7799 440.32 95.6799 442.54 95.5999Z" fill="#111212"/>
<path d="M337.449 157H357.519L357.559 165.78C345.559 166 349.939 175.52 349.259 184.16H337.449V157Z" fill="#111212"/>
<path d="M457.89 95.6001H447.26V132.2H457.89V95.6001Z" fill="#111212"/>
<path d="M559.441 51.9099V77.2999C559.441 79.8899 549.851 78.9899 547.631 79.0699V51.9099H559.441Z" fill="#111212"/>
<path d="M464.98 207.77H454.35V234.93H464.98V207.77Z" fill="#111212"/>
<path d="M349.261 106.22H338.631V132.2H349.261V106.22Z" fill="#111212"/>
<path d="M396.489 158.18H385.859V184.16H396.489V158.18Z" fill="#111212"/>
<path d="M397.679 147.55C399.229 157.96 393.839 155.86 385.859 155.83V147.55H397.679Z" fill="#111212"/>
<path d="M350.451 95.5901C352.001 106 346.611 103.9 338.631 103.87V95.5901H350.451Z" fill="#111212"/>
<path d="M464.98 197.14H454.34V205.42H464.98V197.14Z" fill="#111212"/>
<path d="M558.271 42.46H547.631V49.56H558.271V42.46Z" fill="#111212"/>
<path d="M235.91 41.28L226.65 101.82L277.21 138.69L226.63 175.54L235.9 237.28L175.34 226.81L138.49 277.41L101.67 226.78L39.8898 237.28L50.3898 175.5L-0.240234 138.69L50.3398 101.87L39.8998 40.09L101.63 50.55L138.48 -0.0300293L175.35 50.53L235.9 41.27L235.91 41.28ZM134.34 80.25L135.52 21.21L109.51 56.04C109.49 59.59 130.92 76.25 134.34 80.25ZM142.63 80.25L167.13 56.06L141.45 22.39L142.63 80.25ZM80.0398 55.46L51.6998 51.92L55.2498 81.43C59.8998 78.06 57.6698 64.97 60.5298 61.33C61.9498 59.52 74.9798 58.58 78.2698 57.79C80.0698 57.36 80.3398 58.6 80.0398 55.45V55.46ZM225.27 51.91L193.4 56.61L215.66 60.33C217.13 61.25 218.82 77.68 219.4 80.83C219.76 82.76 218.63 82.87 221.72 82.6L225.26 51.91H225.27ZM120.18 80.24C120.71 78.19 119.34 77.88 118.42 76.7C116.83 74.64 104.03 60.68 102.93 60.46L75.3098 64.91C75.6398 66.94 77.6498 66.97 79.1198 67.58C91.4898 72.77 107.36 75.61 120.17 80.24H120.18ZM201.66 64.91C195.28 66.05 178.78 59.53 174.05 60.46C170.71 61.12 158.99 77.06 155.61 80.24L201.66 64.91ZM129.63 92.07L68.2298 69.63L92.4398 129.82L129.63 92.07ZM207.56 69.63L147.35 92.64L185.12 129.84L207.56 69.63ZM78.8498 120.39L64.6998 75.53L59.8798 104.23L78.8398 120.39H78.8498ZM212.28 77.88C210.45 75.7 210.26 78.57 209.81 79.55C204.38 91.52 202.4 107.02 196.93 119.21C198.89 120.69 215.51 106.17 216.35 103.94C216.81 102.71 213.12 78.9 212.27 77.89L212.28 77.88ZM100.11 134.56H132.58C132.71 134.56 134.35 132.91 134.35 132.79V100.32L100.11 134.56ZM176.86 134.56L142.62 100.32V134.56H176.86ZM78.8498 134.56C79.3798 132.51 77.9998 132.2 77.0898 131.02C71.5398 123.78 61.8698 116.87 55.6598 109.86L20.9798 135.16L78.8398 134.56H78.8498ZM254.8 135.73L220.94 109.92L218.74 110.83L196.95 133.97L254.8 135.72V135.73ZM78.8498 142.83L20.9998 141.65L55.6698 167.49C61.8998 160.54 71.5598 153.59 77.0998 146.37C78.0098 145.19 79.3898 144.87 78.8598 142.83H78.8498ZM255.98 141.66L196.95 143.41C201.79 146.46 217.26 167.69 221.15 167.67L255.98 141.66ZM134.35 177.07V144.6C134.35 144.47 132.7 142.83 132.58 142.83H100.11C99.5998 144.89 100.96 145.19 101.87 146.38C106.5 152.42 124.76 170.68 130.8 175.31C131.99 176.22 132.29 177.59 134.35 177.07ZM176.86 142.83H144.39C144.26 142.83 142.62 144.48 142.62 144.6V177.07L176.86 142.83ZM68.2398 208.95L129.61 184.75L92.4398 147.58L68.2398 208.95ZM185.11 147.55L147.36 184.74L208.16 208.92L185.11 147.55ZM65.8498 201.86L80.0198 155.82C73.2498 161.82 65.8198 167.19 60.1498 174.35L65.8498 201.86ZM212.28 201.87C211.14 195.5 217.66 178.98 216.73 174.26C216.47 172.92 203.33 161.23 201.07 159.36C199.74 158.26 199.16 156.49 196.94 157.01C201.43 169.82 204.44 185.76 209.6 198.06C210.21 199.53 210.24 201.54 212.27 201.87H212.28ZM225.27 225.48L221.72 194.79C216.78 198.06 218.76 212.87 216.49 216.12L194.58 220.78C195.3 222.44 200.55 222.69 202.41 222.96C209.95 224.06 217.7 224.53 225.27 225.48ZM83.5698 220.77C78.9698 219.02 64.2198 219 61.1298 216.63C59.1398 215.11 58.2198 202.81 57.2298 199.26C56.8898 198.04 56.9498 195.68 55.2498 195.96L51.6998 225.48L74.5598 222.96L83.5698 220.77ZM201.65 211.33L155.61 197.16L172.95 217.3L201.65 211.33ZM119 198.33L75.3198 212.48L102.83 217.03C104.1 216.74 109.9 210.52 111.34 208.97C112.24 208 119.83 199.07 118.99 198.33H119ZM134.35 198.33C132.3 197.8 131.99 199.18 130.81 200.09C123.7 205.54 118.17 214.87 110.1 219.57L109.52 221.31L135.53 256.18L134.35 198.33ZM142.6 256.18L167.13 221.34C161.81 217.54 148.97 200.27 144.37 198.34C141.96 197.33 142.71 199.98 142.61 201.26C141.45 217.16 140.63 237.4 141.43 253.25C141.5 254.58 140.66 256.49 142.6 256.17V256.18Z" fill="#111212"/>
</g>
<defs>
<clipPath id="clip0_2299_31">
<rect width="593" height="277" fill="white"/>
</clipPath>
</defs>
</svg>
