<svg width="277" height="277" viewBox="0 0 277 277" fill="none" xmlns="http://www.w3.org/2000/svg">
<g clip-path="url(#clip0_2293_2)">
<path d="M242.564 47.0743C317.268 132.221 263.124 267.245 150.312 276.509C41.1713 285.472 -34.8967 169.966 16.3301 73.452C61.5648 -11.7622 178.592 -25.837 242.564 47.0743ZM228.646 55.5228C168.252 -9.23523 62.1005 7.7611 25.4685 87.9762C-13.1077 172.448 51.747 268 144.573 262.954C248.963 257.281 299.979 132.009 228.646 55.5202V55.5228Z" fill="#F3CAD2"/>
<path d="M211.275 188.825C211.137 188.971 211.027 192.165 210.896 192.818C210.246 196.077 208.599 200.545 206.146 202.853C204.413 204.481 199.215 206.605 196.905 206.605H179.812V179.185H187.223C187.516 179.185 189.87 179.857 190.309 180.029C192.392 180.852 193.85 182.762 194.553 184.843C195.032 186.256 195.209 190.644 195.51 191.062C195.831 191.509 197.964 191.266 197.964 190.785V165.625C197.451 165.727 195.816 165.455 195.575 165.659C195.35 165.85 194.909 170.365 194.553 171.418C193.931 173.256 192.489 175.223 190.704 176.023C190.422 176.148 188.553 176.776 188.433 176.776H179.812V151.163H196.905C197.579 151.163 201.11 152.18 201.896 152.52C206.833 154.639 208.947 160.02 209.462 165.027C210.089 164.71 211.633 165.238 211.832 164.535L210.972 148.751H159.693C159.058 148.751 159.058 151.161 159.693 151.161H168.92V206.605H160.299C158.562 206.605 159.238 209.015 159.693 209.015H213.089L213.695 188.825C213.251 188.896 211.367 188.726 211.273 188.825H211.275Z" fill="#F3CAD2"/>
<path d="M182.219 143.473C186.823 139.958 193.537 137.452 197.807 133.679C201.423 130.483 198.93 125.627 194.386 126.958C192.844 127.41 190.479 130.389 189.319 131.703C186.324 135.095 183.753 138.895 180.56 142.13C180.084 143.133 181.242 143.991 182.219 143.476V143.473Z" fill="#F3CAD2"/>
<path d="M157.881 161.405C153.313 161.823 147.786 160.851 143.343 161.392C142.052 161.548 142.277 162.034 142.298 163.213H149.408C149.44 163.213 149.863 163.634 149.863 163.665V193.045C149.544 193.004 149.312 192.664 149.126 192.423C142.625 183.933 136.928 173.506 130.753 164.622C130.013 163.558 129.093 162.385 128.234 161.407H111.141V163.216H117.948C117.979 163.216 118.403 163.636 118.403 163.668V205.1H111.747C111.648 205.1 111.203 206.909 111.898 206.909H127.782V205.1H120.219V163.516L149.853 207.674C150.166 208.343 151.682 208.176 151.682 207.661V163.216H158.641C158.651 162.463 158.866 161.499 157.886 161.407L157.881 161.405Z" fill="#F3CAD2"/>
<path d="M151.061 76.2692L128.836 135.492H120.516V137.902H142.6V135.492H131.708L137.899 119.199L156.784 119.256L162.567 135.492H152.885V137.902H181.626V135.492H173.608L152.572 76.1411L151.059 76.2692H151.061ZM138.67 116.808L147.291 92.6984L155.912 116.808H138.667H138.67Z" fill="#F3CAD2"/>
<path d="M113.591 152.478C114.202 151.7 116.494 144.589 117.04 143.024C125.836 117.796 133.882 92.2855 142.754 67.0863C143.499 64.9722 144.278 62.819 145.177 60.7597H159.092C159.763 60.7597 159.763 57.1431 159.092 57.1431H126.267C126.327 57.7859 126.003 60.7597 126.722 60.7597H141.395L118.854 126.15L94.5037 60.7597H108.571C109.289 60.7597 108.965 57.7859 109.025 57.1431H64.2506C64.4021 57.961 63.8246 60.4174 64.7471 60.7179L76.517 60.5768L77.0867 61.076L111.594 152.368C111.934 152.771 113.282 152.881 113.596 152.481L113.591 152.478Z" fill="#F3CAD2"/>
<path d="M82.6578 224.342L84.0924 227.814L86.2614 221.995H85.109V221.694H87.4138V221.995H86.5985L83.6743 229.769H83.4679L81.9548 226.116L80.4784 229.769H80.2589L77.0812 221.995H76.1953V221.694H84.4609V221.995H83.609L82.6578 224.344V224.342ZM80.9148 227.885L81.7824 225.708L80.2589 221.995H78.5028L80.9122 227.885H80.9148ZM81.7014 221.995L82.4984 223.931L83.285 221.995H81.7014Z" fill="#F3CAD2"/>
<path d="M91.0956 226.921H88.1061C88.0774 228.081 88.1427 228.797 88.3021 229.066C88.4615 229.335 88.7411 229.469 89.1462 229.469C89.9824 229.469 90.5469 228.985 90.8422 228.021H91.0956C90.965 228.606 90.7193 229.037 90.3561 229.314C89.9929 229.591 89.5904 229.732 89.1462 229.732C88.5112 229.732 87.9598 229.497 87.492 229.029C87.0243 228.562 86.7891 227.971 86.7891 227.26C86.7891 226.55 87.019 225.99 87.4763 225.517C87.9337 225.044 88.4667 224.812 89.0756 224.812C89.6035 224.812 90.066 224.997 90.4606 225.371C90.8552 225.745 91.0695 226.259 91.0956 226.918V226.921ZM88.1061 226.654H89.8256C89.857 226.374 89.8727 226.163 89.8727 226.019C89.8727 225.392 89.5878 225.078 89.0155 225.078C88.7307 225.078 88.5086 225.154 88.3492 225.306C88.1897 225.457 88.1061 225.661 88.1061 225.92V226.654Z" fill="#F3CAD2"/>
<path d="M96.8266 221.605V229.286H97.6236V229.586H96.9625C96.5444 229.586 96.1027 229.61 95.6402 229.657V228.692H95.6167C95.3005 229.388 94.7961 229.735 94.1036 229.735C93.547 229.735 93.0583 229.49 92.635 228.996C92.2117 228.502 92 227.945 92 227.321C92 226.654 92.2247 226.069 92.6716 225.567C93.1185 225.065 93.6463 224.814 94.2526 224.814C94.8589 224.814 95.3266 225.091 95.6167 225.645H95.6402V221.997H94.5662V221.697H95.6402C96.0374 221.697 96.4346 221.668 96.8266 221.608V221.605ZM94.2866 225.078C93.858 225.078 93.5888 225.238 93.4791 225.559C93.3693 225.881 93.3171 226.526 93.3171 227.503C93.3171 228.348 93.385 228.878 93.5235 229.098C93.662 229.317 93.8841 229.427 94.1899 229.427C94.5218 229.427 94.8118 229.314 95.0653 229.092C95.3188 228.87 95.4834 228.614 95.5618 228.327C95.6402 228.039 95.6794 227.577 95.6794 226.931C95.6794 226.286 95.5566 225.857 95.3083 225.546C95.0601 225.235 94.7204 225.078 94.2866 225.078Z" fill="#F3CAD2"/>
<path d="M103.25 221.605V229.286H104.047V229.586H103.386C102.968 229.586 102.527 229.61 102.064 229.657V228.692H102.041C101.724 229.388 101.22 229.735 100.527 229.735C99.9708 229.735 99.4822 229.49 99.0588 228.996C98.6355 228.502 98.4238 227.945 98.4238 227.321C98.4238 226.654 98.6486 226.069 99.0954 225.567C99.5423 225.065 100.07 224.814 100.676 224.814C101.283 224.814 101.75 225.091 102.041 225.645H102.064V221.997H100.99V221.697H102.064C102.461 221.697 102.858 221.668 103.25 221.608V221.605ZM100.708 225.078C100.279 225.078 100.01 225.238 99.9003 225.559C99.7905 225.881 99.7383 226.526 99.7383 227.503C99.7383 228.348 99.8062 228.878 99.9447 229.098C100.083 229.317 100.305 229.427 100.611 229.427C100.943 229.427 101.233 229.314 101.487 229.092C101.74 228.87 101.905 228.614 101.983 228.327C102.061 228.039 102.101 227.577 102.101 226.931C102.101 226.286 101.978 225.857 101.73 225.546C101.481 225.235 101.142 225.078 100.708 225.078Z" fill="#F3CAD2"/>
<path d="M106.635 224.872V229.286H107.409V229.586H104.662V229.286H105.49V225.261H104.662V224.961H105.501C105.903 224.961 106.28 224.932 106.635 224.872ZM105.449 222.606C105.449 222.434 105.511 222.285 105.639 222.159C105.767 222.034 105.919 221.971 106.092 221.971C106.264 221.971 106.416 222.034 106.544 222.157C106.672 222.28 106.734 222.431 106.734 222.606C106.734 222.781 106.672 222.943 106.546 223.066C106.421 223.189 106.269 223.249 106.092 223.249C105.914 223.249 105.762 223.186 105.637 223.064C105.511 222.941 105.449 222.789 105.449 222.606Z" fill="#F3CAD2"/>
<path d="M108.813 229.286V225.261H107.975V224.961H108.513C109.043 224.961 109.527 224.932 109.961 224.872V226.019H109.984C110.389 225.214 110.964 224.812 111.704 224.812C112.051 224.812 112.336 224.901 112.558 225.076C112.78 225.251 112.932 225.46 113.013 225.7C113.094 225.941 113.133 226.309 113.133 226.813V229.286H114.056V229.586H111.197V229.286H111.983V226.343C111.983 225.891 111.955 225.58 111.897 225.408C111.84 225.235 111.691 225.149 111.45 225.149C111.069 225.149 110.724 225.345 110.418 225.734C110.112 226.124 109.961 226.649 109.961 227.307V229.286H110.734V229.586H107.975V229.286H108.813Z" fill="#F3CAD2"/>
<path d="M118.616 225.572C118.848 225.899 118.963 226.22 118.963 226.536C118.963 227.075 118.746 227.48 118.31 227.757C117.874 228.034 117.518 228.172 117.244 228.172L116.948 228.191C116.81 228.191 116.624 228.18 116.387 228.159C116.149 228.138 116.023 228.128 116.008 228.128C115.853 228.128 115.676 228.199 115.469 228.337C115.263 228.476 115.161 228.624 115.161 228.781C115.161 228.92 115.213 229.022 115.32 229.092C115.428 229.163 115.691 229.199 116.117 229.199L118.137 229.116C118.558 229.116 118.901 229.249 119.164 229.516C119.428 229.782 119.559 230.164 119.559 230.658C119.559 231.235 119.321 231.718 118.843 232.113C118.367 232.508 117.706 232.704 116.865 232.704C116.212 232.704 115.691 232.573 115.307 232.312C114.923 232.05 114.732 231.745 114.732 231.392C114.732 231.175 114.793 230.995 114.915 230.848C115.038 230.702 115.31 230.506 115.736 230.263C115.083 230.106 114.756 229.748 114.756 229.186C114.756 228.434 115.164 228.008 115.979 227.908V227.885C115.349 227.587 115.033 227.138 115.033 226.536C115.033 226.05 115.229 225.64 115.618 225.308C116.008 224.976 116.468 224.812 116.995 224.812C117.57 224.812 118.051 225.008 118.438 225.4C118.723 225.008 119.036 224.812 119.384 224.812C119.517 224.812 119.635 224.856 119.731 224.948C119.828 225.039 119.88 225.162 119.88 225.319C119.88 225.457 119.836 225.564 119.75 225.645C119.664 225.726 119.569 225.766 119.465 225.766C119.316 225.766 119.204 225.698 119.13 225.559C119.057 225.421 118.995 225.353 118.945 225.353C118.846 225.353 118.733 225.426 118.608 225.57L118.616 225.572ZM116.089 230.263C115.715 230.498 115.527 230.848 115.527 231.311C115.527 232.04 116.026 232.406 117.027 232.406C117.664 232.406 118.192 232.257 118.608 231.959C119.023 231.661 119.232 231.311 119.232 230.911C119.232 230.671 119.128 230.488 118.919 230.357C118.71 230.226 118.475 230.164 118.216 230.164C118.114 230.164 117.884 230.177 117.523 230.2C117.163 230.224 116.899 230.237 116.726 230.242L116.089 230.266V230.263ZM116.98 225.112C116.598 225.112 116.36 225.209 116.272 225.4C116.183 225.591 116.136 225.915 116.136 226.364C116.136 227.015 116.178 227.435 116.264 227.624C116.35 227.812 116.59 227.906 116.993 227.906C117.395 227.906 117.649 227.809 117.732 227.618C117.816 227.428 117.855 226.957 117.855 226.212C117.855 225.75 117.782 225.449 117.633 225.316C117.484 225.183 117.267 225.112 116.98 225.112Z" fill="#F3CAD2"/>
<path d="M127.669 225.225L129.052 227.415C129.067 227.467 129.13 227.569 129.24 227.72C129.736 227.049 130.034 226.134 130.139 224.971H128.986V224.666H131.325V224.971H130.416C130.337 226.226 130.003 227.224 129.412 227.961L130.369 229.286H131.249V229.586H128.879C128.707 229.338 128.547 229.132 128.406 228.962C127.724 229.5 126.966 229.769 126.133 229.769C125.299 229.769 124.656 229.552 124.199 229.118C123.742 228.685 123.512 228.162 123.512 227.551C123.512 226.973 123.716 226.456 124.126 225.996C124.536 225.536 125.121 225.191 125.882 224.961C125.43 224.193 125.202 223.605 125.202 223.202C125.202 222.8 125.388 222.408 125.762 222.086C126.135 221.765 126.598 221.605 127.152 221.605C127.706 221.605 128.163 221.736 128.558 221.995C128.952 222.254 129.148 222.591 129.148 223.006C129.148 223.348 129.018 223.646 128.756 223.908C128.495 224.169 128.025 224.42 127.348 224.668L127.672 225.227L127.669 225.225ZM126.026 225.214C125.187 225.528 124.766 225.964 124.766 226.526C124.766 227.049 124.978 227.645 125.401 228.316C125.824 228.988 126.313 229.322 126.87 229.322C127.298 229.322 127.763 229.121 128.265 228.721C127.387 227.467 126.64 226.296 126.026 225.214ZM127.196 224.425C127.578 224.271 127.829 224.091 127.944 223.879C128.059 223.667 128.119 223.38 128.119 223.019C128.119 222.277 127.803 221.906 127.173 221.906C126.932 221.906 126.734 221.969 126.577 222.097C126.42 222.225 126.342 222.387 126.342 222.583C126.342 222.933 126.627 223.547 127.199 224.425H127.196Z" fill="#F3CAD2"/>
<path d="M137.921 221.995V225.379H138.637C138.888 225.379 139.102 225.355 139.277 225.306C139.452 225.256 139.609 225.125 139.75 224.909C139.891 224.692 139.969 224.355 139.99 223.897H140.299V227.24H139.99C139.959 226.604 139.836 226.186 139.622 225.983C139.408 225.779 139.078 225.679 138.639 225.679H137.923V229.286H139.536C140.45 229.286 141.083 229.095 141.435 228.711C141.788 228.327 141.997 227.739 142.065 226.942H142.366L142.29 229.584H135.266V229.283H136.525V221.992H135.266V221.692H142L142.136 223.798H141.835C141.733 223.158 141.522 222.698 141.203 222.416C140.884 222.133 140.351 221.992 139.609 221.992H137.926L137.921 221.995Z" fill="#F3CAD2"/>
<path d="M148.666 225.261L146.427 229.769H146.273L143.999 225.261H143.283V224.961H146.184V225.261H145.293L146.84 228.392L148.363 225.261H147.472V224.961H149.393V225.261H148.666Z" fill="#F3CAD2"/>
<path d="M153.932 226.921H150.942C150.913 228.081 150.979 228.797 151.138 229.066C151.297 229.335 151.577 229.469 151.982 229.469C152.818 229.469 153.383 228.985 153.678 228.021H153.932C153.801 228.606 153.555 229.037 153.192 229.314C152.829 229.591 152.426 229.732 151.982 229.732C151.347 229.732 150.796 229.497 150.328 229.029C149.86 228.562 149.625 227.971 149.625 227.26C149.625 226.55 149.855 225.99 150.312 225.517C150.77 225.044 151.303 224.812 151.912 224.812C152.439 224.812 152.902 224.997 153.297 225.371C153.691 225.745 153.905 226.259 153.932 226.918V226.921ZM150.942 226.654H152.662C152.693 226.374 152.709 226.163 152.709 226.019C152.709 225.392 152.424 225.078 151.851 225.078C151.567 225.078 151.344 225.154 151.185 225.306C151.026 225.457 150.942 225.661 150.942 225.92V226.654Z" fill="#F3CAD2"/>
<path d="M155.524 229.286V225.261H154.686V224.961H155.224C155.754 224.961 156.238 224.932 156.672 224.872V226.019H156.695C157.1 225.214 157.675 224.812 158.415 224.812C158.762 224.812 159.047 224.901 159.269 225.076C159.491 225.251 159.643 225.46 159.724 225.7C159.805 225.941 159.844 226.309 159.844 226.813V229.286H160.766V229.586H157.908V229.286H158.694V226.343C158.694 225.891 158.665 225.58 158.608 225.408C158.55 225.235 158.402 225.149 158.161 225.149C157.78 225.149 157.435 225.345 157.129 225.734C156.823 226.124 156.672 226.649 156.672 227.307V229.286H157.445V229.586H154.686V229.286H155.524Z" fill="#F3CAD2"/>
<path d="M163.377 223.618V224.958H164.778V225.259H163.377V228.173C163.377 228.601 163.406 228.891 163.464 229.051C163.521 229.21 163.673 229.286 163.921 229.286C164.109 229.286 164.292 229.223 164.467 229.098C164.642 228.972 164.775 228.779 164.867 228.515H165.12C164.94 229.275 164.389 229.657 163.471 229.657C163.085 229.657 162.803 229.586 162.62 229.448C162.437 229.309 162.327 229.137 162.285 228.933C162.243 228.729 162.222 228.452 162.222 228.102V225.259H161.172V224.958H162.222V223.717C162.612 223.717 162.996 223.683 163.375 223.618H163.377Z" fill="#F3CAD2"/>
<path d="M174.799 221.605V223.947H174.546C174.269 222.523 173.558 221.812 172.408 221.812C171.789 221.812 171.339 222.052 171.055 222.536C170.77 223.019 170.629 224.033 170.629 225.585C170.629 226.86 170.689 227.728 170.812 228.185C170.934 228.643 171.146 228.972 171.447 229.171C171.747 229.369 172.079 229.468 172.442 229.468C172.915 229.468 173.359 229.291 173.775 228.935C174.19 228.58 174.512 228.01 174.742 227.226H175.019L174.925 229.633H174.682C174.59 229.382 174.449 229.171 174.256 228.998C173.634 229.513 172.994 229.769 172.335 229.769C171.499 229.769 170.738 229.374 170.048 228.585C169.359 227.796 169.014 226.832 169.014 225.69C169.014 224.548 169.353 223.536 170.03 222.726C170.707 221.916 171.491 221.511 172.382 221.511C173.067 221.511 173.673 221.757 174.196 222.246C174.35 222.003 174.465 221.788 174.543 221.605H174.797H174.799Z" fill="#F3CAD2"/>
<path d="M176.765 229.286V225.261H175.809V224.961H176.778C177.275 224.961 177.654 224.935 177.912 224.885V225.998H177.936C178.213 225.256 178.62 224.885 179.159 224.885C179.394 224.885 179.585 224.956 179.728 225.099C179.872 225.243 179.945 225.415 179.945 225.619C179.945 225.807 179.888 225.959 179.77 226.077C179.653 226.194 179.504 226.249 179.318 226.249C178.978 226.249 178.811 226.079 178.811 225.742L178.835 225.489C178.835 225.397 178.793 225.353 178.712 225.353C178.581 225.353 178.417 225.528 178.215 225.875C178.014 226.223 177.915 226.759 177.915 227.477V229.283H178.895V229.584H175.811V229.283H176.768L176.765 229.286Z" fill="#F3CAD2"/>
<path d="M184.885 226.921H181.895C181.866 228.081 181.932 228.797 182.091 229.066C182.251 229.335 182.53 229.469 182.935 229.469C183.771 229.469 184.336 228.985 184.631 228.021H184.885C184.754 228.606 184.508 229.037 184.145 229.314C183.782 229.591 183.379 229.732 182.935 229.732C182.3 229.732 181.749 229.497 181.281 229.029C180.813 228.562 180.578 227.971 180.578 227.26C180.578 226.55 180.808 225.99 181.265 225.517C181.723 225.044 182.256 224.812 182.865 224.812C183.393 224.812 183.855 224.997 184.25 225.371C184.644 225.745 184.859 226.259 184.885 226.918V226.921ZM181.895 226.654H183.615C183.646 226.374 183.662 226.163 183.662 226.019C183.662 225.392 183.377 225.078 182.805 225.078C182.52 225.078 182.298 225.154 182.138 225.306C181.979 225.457 181.895 225.661 181.895 225.92V226.654Z" fill="#F3CAD2"/>
<path d="M188.863 226.944V226.343C188.863 225.852 188.824 225.53 188.743 225.379C188.662 225.227 188.445 225.149 188.09 225.149C187.452 225.149 187.133 225.272 187.133 225.515C187.133 225.585 187.159 225.664 187.214 225.747C187.269 225.831 187.295 225.93 187.295 226.045C187.295 226.207 187.243 226.327 187.136 226.414C187.029 226.5 186.908 226.539 186.775 226.539C186.603 226.539 186.467 226.484 186.373 226.377C186.279 226.27 186.232 226.142 186.232 225.998C186.232 225.685 186.415 225.421 186.783 225.206C187.151 224.992 187.664 224.885 188.322 224.885C188.85 224.885 189.237 224.945 189.48 225.068C189.723 225.191 189.874 225.34 189.932 225.52C189.989 225.7 190.018 225.956 190.018 226.286V228.452C190.018 228.771 190.042 228.967 190.086 229.045C190.131 229.124 190.201 229.163 190.295 229.163C190.436 229.163 190.575 229.066 190.708 228.875H190.849C190.747 229.448 190.413 229.735 189.846 229.735C189.279 229.735 188.97 229.422 188.866 228.794C188.406 229.422 187.865 229.735 187.248 229.735C186.838 229.735 186.511 229.625 186.268 229.403C186.025 229.181 185.902 228.909 185.902 228.588C185.902 227.587 186.89 227.041 188.868 226.947L188.863 226.944ZM188.863 227.848V227.213C188.134 227.242 187.653 227.349 187.421 227.54C187.188 227.731 187.073 228.005 187.073 228.366C187.073 228.63 187.144 228.834 187.282 228.977C187.421 229.121 187.583 229.194 187.763 229.194C187.996 229.194 188.205 229.116 188.393 228.962C188.581 228.807 188.704 228.651 188.769 228.494C188.834 228.337 188.863 228.12 188.863 227.846V227.848Z" fill="#F3CAD2"/>
<path d="M193.586 223.618V224.958H194.987V225.259H193.586V228.173C193.586 228.601 193.615 228.891 193.673 229.051C193.73 229.21 193.882 229.286 194.13 229.286C194.318 229.286 194.501 229.223 194.676 229.098C194.851 228.972 194.984 228.779 195.076 228.515H195.329C195.149 229.275 194.598 229.657 193.68 229.657C193.294 229.657 193.012 229.586 192.829 229.448C192.646 229.309 192.536 229.137 192.494 228.933C192.452 228.729 192.431 228.452 192.431 228.102V225.259H191.381V224.958H192.431V223.717C192.821 223.717 193.205 223.683 193.584 223.618H193.586Z" fill="#F3CAD2"/>
<path d="M196.164 227.26C196.164 226.581 196.399 226.003 196.867 225.528C197.335 225.052 197.918 224.812 198.61 224.812C199.303 224.812 199.862 225.039 200.332 225.496C200.803 225.954 201.038 226.526 201.038 227.211C201.038 227.895 200.795 228.509 200.306 228.996C199.817 229.482 199.24 229.727 198.576 229.727C197.912 229.727 197.356 229.489 196.88 229.011C196.404 228.533 196.164 227.95 196.164 227.255V227.26ZM199.71 227.26C199.71 226.539 199.687 226.061 199.637 225.831C199.587 225.601 199.478 225.415 199.305 225.28C199.133 225.144 198.897 225.076 198.6 225.076C198.315 225.076 198.082 225.146 197.899 225.285C197.716 225.423 197.604 225.609 197.56 225.841C197.515 226.074 197.494 226.55 197.494 227.271C197.494 227.992 197.52 228.478 197.575 228.713C197.63 228.948 197.745 229.134 197.923 229.267C198.1 229.401 198.328 229.469 198.6 229.469C198.871 229.469 199.104 229.401 199.287 229.265C199.47 229.129 199.587 228.941 199.634 228.7C199.681 228.46 199.708 227.979 199.708 227.26H199.71Z" fill="#F3CAD2"/>
<path d="M202.751 229.286V225.261H201.795V224.961H202.764C203.261 224.961 203.64 224.935 203.899 224.885V225.998H203.922C204.199 225.256 204.607 224.885 205.145 224.885C205.38 224.885 205.571 224.956 205.715 225.099C205.858 225.243 205.932 225.415 205.932 225.619C205.932 225.807 205.874 225.959 205.757 226.077C205.639 226.194 205.49 226.249 205.304 226.249C204.965 226.249 204.797 226.079 204.797 225.742L204.821 225.489C204.821 225.397 204.779 225.353 204.698 225.353C204.568 225.353 204.403 225.528 204.202 225.875C204 226.223 203.901 226.759 203.901 227.477V229.283H204.881V229.584H201.798V229.283H202.754L202.751 229.286Z" fill="#F3CAD2"/>
</g>
<defs>
<clipPath id="clip0_2293_2">
<rect width="277" height="277" fill="white"/>
</clipPath>
</defs>
</svg>
