<?xml version="1.0" encoding="UTF-8"?>
<svg id="Livello_1" xmlns="http://www.w3.org/2000/svg" version="1.1" viewBox="0 0 850.4 850.4">
  <!-- Generator: Adobe Illustrator 29.7.0, SVG Export Plug-In . SVG Version: 2.1.1 Build 138)  -->
  <defs>
    <style>
      .st0 {
        fill: snow;
      }
    </style>
  </defs>
  <path class="st0" d="M765.2,423.1c-.8-65.2-20.1-128.9-55.6-183.4-35.5-54.6-85.8-97.7-144.9-124.5-59.2-26.7-124.6-35.9-188.8-26.5-64.1,9.4-124.2,37.1-173.3,79.8-49,42.7-84.9,98.5-103.4,161.1-18.6,62.5-18.9,129-1.1,191.7,17.8,62.7,53,119.1,101.6,162.3,48.6,43.2,108.3,71.6,172.4,81.9v-242.6h-85v-99.7h85v-75.7c-2-17.6,0-35.4,5.5-52.2,5.6-16.8,14.9-32.1,27-44.9,12.2-12.8,27-22.8,43.4-29.2,16.4-6.4,34-9.2,51.6-8,25.5.3,51,2.7,76.1,6.8v85.6h-42.6c-7.4-1-14.8-.2-21.8,2.2-7,2.3-13.4,6.3-18.7,11.4-5.3,5.2-9.4,11.5-11.9,18.4-2.6,7-3.5,14.4-2.8,21.8v64.6h94.4l-15.3,99.7h-78.6v239.6c80.4-12.8,153.5-54.2,206.1-116.6,52.6-62.4,81.3-141.8,80.9-223.6l-.2.2Z"/>
</svg>