<?xml version="1.0" encoding="UTF-8"?>
<svg id="Livello_1" xmlns="http://www.w3.org/2000/svg" version="1.1" viewBox="0 0 850.4 850.4">
  <!-- Generator: Adobe Illustrator 29.7.0, SVG Export Plug-In . SVG Version: 2.1.1 Build 138)  -->
  <defs>
    <style>
      .st0 {
        fill: snow;
        fill-rule: evenodd;
      }
    </style>
  </defs>
  <g id="Page-1">
    <g id="Dribbble-Light-Preview">
      <g id="icons">
        <path id="instagram-_x5B__x23_167_x5D_" class="st0" d="M273,61.2c-60,2.7-112,17.4-154,59.2-42.1,42-56.6,94.2-59.3,153.6-1.7,37-11.6,317,17.1,390.4,19.3,49.5,57.3,87.6,107.3,107,23.3,9.1,49.9,15.2,89,17,326.5,14.8,447.6,6.7,498.6-124,9.1-23.3,15.3-49.9,17-88.8,14.9-327.4-2.4-398.3-59.3-455.2-45.1-45-98.2-75.7-456.3-59.2M276,722.5c-35.8-1.6-55.1-7.6-68.1-12.6-32.6-12.6-57-37-69.6-69.4-21.8-55.8-14.6-320.7-12.6-363.6,1.9-42,10.4-80.4,40-110,36.7-36.6,84-54.5,406.6-39.9,42.1,1.9,80.6,10.4,110.3,39.9,36.7,36.6,54.9,84.3,40,405.6-1.6,35.7-7.6,55-12.6,67.9-33.2,85-109.5,96.9-434,82M575.9,229.5c0,24.2,19.7,43.9,44,43.9s44-19.7,44-43.9-19.7-43.9-44-43.9-44,19.7-44,43.9M235.9,424.8c0,103.7,84.3,187.8,188.3,187.8s188.3-84.1,188.3-187.8-84.3-187.8-188.3-187.8-188.3,84-188.3,187.8M302,424.8c0-67.3,54.7-121.9,122.2-121.9s122.2,54.6,122.2,121.9-54.7,122-122.2,122-122.2-54.6-122.2-122"/>
      </g>
    </g>
  </g>
</svg>