<?xml version="1.0" encoding="UTF-8"?>
<svg id="Livello_1" data-name="Livello 1" xmlns="http://www.w3.org/2000/svg" viewBox="0 0 850.39 423.39">
  <defs>
    <style>
      .cls-1 {
        fill: #111212;
      }
    </style>
  </defs>
  <path class="cls-1" d="M492.43,306.16c.05.33,1.78,1.33,1.18,1.76-6.52-1.54-23.87,2.04-28.31-1.79-2-1.73-1.39-4.86-3.56-5.28-4.1,12.05-25.5,10.47-28.08-2.05-4.13-20.07,17.3-25.67,29.22-12.72-.01.52-8.34,5.34-8.85,5.29-1-.1-1.25-3.22-2.57-3.56-10.85-2.76-8.13,17.33.34,10.76,1.36-1.06,1.51-3.52,1.68-3.64.42-.31,7.99,6.07,9.41,4.73.16-.15.13-3.09.89-4.41,3.23-5.59,12.3-5.31,18.01-6.23-3.56-5.41-11.45,2.68-17.71,0-1.22-12.9,28.33-10.91,28.33-4.13,0,6.36-.81,15.34,0,21.25ZM481.79,294.95c-.27-.29-6.98,1.84-7.56,2.25-5.45,3.93,8.75,6.64,7.56-2.25Z"/>
  <path class="cls-1" d="M485.42,135.48c-.3-.22-.17-2.72-1.97-3.35-6.06-2.12-7.05,2.68-6.44,7.59,1.17,9.45,7.83.55,9.88.72,1.7.15,6.87,4.49,7.89,3.36-3.97-19.18,17.84-27.65,29.51-13.57-.01.6-7.41,5.42-8.78,5.39-.47,0-2.77-6.41-7.58-3.46-1.21.74-3.39,10.88,1.63,11.7,5.66.92,4.33-3.92,6.98-3.65,3.22.33,4.64,3.54,7.74,3.59,1.56-9.77,11.08-9.27,18.91-10.64-3.56-5.41-11.45,2.68-17.7,0,.15-12.19,25.67-12.21,28.09-3.88,1.82,6.29-1.51,16.06,1.42,22.77-9.79-2.53-25.43,5.09-30.12-5.91-9.62,9.06-22.5,10.25-29.5-2.34-9.3,18.05-37.54,7.93-29.22-12.69,4.09-10.15,23.11-10.26,28.6-.89,0,.54-8.55,5.84-9.35,5.26ZM543.19,139.08c-1.71.73-8.17,2.1-8.23,4.13-.1,3.54,10.3,1.54,8.23-4.13Z"/>
  <path class="cls-1" d="M510.15,272.5c1.53,1.53-3.59,10.6,4.73,8.27,1.99,8.87-4.84,6.15-5.87,7.13-.42.4-.52,10.16,1.05,11.25,5.57,3.88,5.4-4.1,7.5-6.25,2.88-2.96,12.04-3.13,16.2-3.88-3.56-5.41-11.45,2.68-17.71,0,.29-12.05,25.56-12.54,28.09-3.88,1.83,6.27-1.52,16.08,1.42,22.77-9.7-2.45-25.54,4.93-30.11-5.91-.33,7.13-4.53,6.48-10.65,5.91-11.2-1.04-4.44-12.64-6.39-19.35-.27-.92-7.27-1.12-4.81-7.8,8.32,2.33,3.2-6.74,4.73-8.27.42-.42,11.4-.42,11.82,0ZM533.74,294.94c-1.71.73-8.17,2.1-8.23,4.13-.1,3.54,10.3,1.54,8.23-4.13Z"/>
  <path class="cls-1" d="M671.91,152.07h-10.63c-.64-4.17,2.45-18.91-4.13-18.94-6.08-.03-.65,16.06-4.06,18.43-2.03,1.41-7.98.1-10.71.52-.66-3.95,2.16-17.72-3.12-18.67-7.62-1.36-1.91,13.86-4.47,17.56-1.51,2.17-8.54.73-11.29,1.11v-27.16c4.02.7,9.98-2.13,11.21,2.36,5.85-9.24,16.71,1.13,17.72,1.13.59,0,4.22-5.06,10.48-4.62,2.23.16,9,3.38,9,5.26v23.03Z"/>
  <path class="cls-1" d="M464.09,168.6v36.6c-13.23-.99-29.85,7.25-30.76-12.36-.6-12.93,6.89-17.29,18.94-13.62.35-1.86-.45-10.18,0-10.63s9.82.34,11.81,0ZM452.1,196.75c1.25-1.96.54-10.7-2.95-11.4-5.83-1.16-7.3,11.37-1.94,12.6,1.06.24,4.5-.57,4.89-1.2Z"/>
  <path class="cls-1" d="M586.89,115.46v36.6c-13.51-1.29-30.39,5.26-30.04-14.77.19-11.25,9.57-17.07,19.4-11.21v-10.63s10.64,0,10.64,0ZM569.33,143.64c7.44,4.61,9.82-10.01,3.75-11.52s-5.9,10.19-3.75,11.52Z"/>
  <path class="cls-1" d="M494.79,168.6h10.63s0,10.62,0,10.62c12.11-3.66,19.5.69,18.94,13.63-.82,19.21-16.52,11.66-29.58,12.36v-36.6ZM512.22,186.58c-5.5-5.97-10.74,9.64-3.62,11.41,5.45,1.36,6.6-8.18,3.62-11.41Z"/>
  <path class="cls-1" d="M578.63,307.93h-11.81v-17.12c0-2.17-5.6-2.77-6.84,1.42-.85,2.88.33,15.14-.24,15.7h-11.81v-27.16c4.04-1.09,10.13,1.18,13.43.84,2.54-.26,3.7-2.35,8.27-1.95,2.96.26,9,3.34,9,6.43v21.84Z"/>
  <path class="cls-1" d="M462.91,152.07c-9.39-2.47-29.74,5.82-29.64-8.87.08-11.64,15.09-7.43,17.83-10.03,2.46-2.34-2.81-2.66-4.2-2.43-2.23.36-1.57,2.2-2.52,2.42-5.04,1.17-13.38,1.1-8.72-5.37,4.69-6.53,27.24-5.77,27.24,3.63v20.66ZM451.09,140.26c-1.97-.96-9.99,1.51-7.07,4.71,1.11,1.21,7.94-1.03,7.07-4.71Z"/>
  <path class="cls-1" d="M627.04,306.16c.05.33,1.78,1.33,1.18,1.76-9.48-2.5-30.93,5.95-30.82-8.86.08-11.64,15.09-7.43,17.83-10.03,2.46-2.34-2.81-2.66-4.2-2.43-2.23.36-1.57,2.2-2.52,2.42-2.8.66-6.79-.37-9.81.02-1.77-13.07,28.34-11.39,28.34-2.95,0,6.03-.77,14.47,0,20.07ZM615.23,296.13c-1.97-.96-9.99,1.51-7.07,4.71,1.11,1.21,7.94-1.03,7.07-4.71Z"/>
  <path class="cls-1" d="M720.32,150.29c.05.33,1.78,1.33,1.18,1.76-9.48-2.5-30.93,5.95-30.82-8.86.08-11.64,15.09-7.43,17.83-10.03,2.46-2.34-2.81-2.66-4.2-2.43-2.23.36-1.57,2.2-2.52,2.42-2.8.66-6.79-.37-9.81.02-1.77-13.07,28.34-11.39,28.34-2.95,0,6.03-.77,14.47,0,20.07ZM701.43,144.98c1.85,1.87,9.49-.99,7.07-5.9-1.84.77-10.15,2.78-7.07,5.9Z"/>
  <path class="cls-1" d="M440.47,238.26c-1.96.06-3.94-.03-5.9,0-.48-12.58,28.33-11.22,28.33-1.77v20.66c-3.75,1.04-9.2-1.15-12.25-.84-2.05.21-3.57,2.15-7.18,2.08-12.15-.22-14.25-14.49-3.01-17.78,1.75-.51,11.8-.73,11.78-2.95,0-1.52-3.88-2-5.35-1.89-1.92.14-.63,2.31-6.43,2.48ZM451.09,245.35c-.32-.32-8.61.1-7.07,4.12,1.74,4.53,9.42-1.73,7.07-4.12Z"/>
  <path class="cls-1" d="M621.13,194.57h-18.89c.57,6.07,6.51,3.27,10.03,1.22,1.27,1.02,8.61,1.72,7.67,4.07-3.99,10.04-29.55,10.2-30.26-7.24-.89-21.67,33.91-20.18,31.46,1.94ZM609.32,188.66c.46-3.8-5.54-6.74-7.07-2.93-1.85,4.59,4.68,2.64,7.07,2.93Z"/>
  <path class="cls-1" d="M557.37,194.57h-18.89c2.03,7.99,7.38.62,12.09,1.36,9.38,1.47,5.55,8.08-1.42,9.89-7.64,1.99-16.86,1.03-20.57-6.66-11.86-24.56,32.1-31.85,28.8-4.59ZM545.56,188.66c2.75-2.66-4.66-7.91-7.07-1.75-1.1,2.8,6.8,2.01,7.07,1.75Z"/>
  <path class="cls-1" d="M602.24,140.26c-2.08,2.13,2.06,5.33,5.07,4.57,3.61-.92,1.72-5.49,9.75-1.07,8.32,4.58-7.57,9.85-13,9.55-4.52-.26-11.48-3.97-12.98-8.37-8.75-25.73,31.49-29.77,30.05-4.67-2.77.5-18.23-.68-18.89,0ZM609.32,134.35c-.31-5.47-5.99-4.09-8.25-.58l8.25.58Z"/>
  <path class="cls-1" d="M505.42,222.91c.48.48-.48,7.84-.02,8.28.43.41,4.32-.42,4.74-.01.21.21.21,5.71,0,5.92-.42.41-4.31-.42-4.74-.01s-.19,10.91.54,11.9c1.44,1.97,5.75-1.4,4.27,7.49-.3,1.77-13.06,3.07-15.71-3.16-2.18-5.12.11-10.98-.81-15.58-.29-1.45-5.16,1.67-3.7-5.91.25-1.29,2.94-.21,3.46-.74.56-.58.05-7.08,1.51-8,.49-.31,10.1-.54,10.47-.17Z"/>
  <path class="cls-1" d="M571.54,168.6v36.6h-11.81v-34.83c0-2.59,9.59-1.69,11.81-1.77Z"/>
  <path class="cls-1" d="M466.45,230h20.07s.04,8.78.04,8.78c-12,.22-7.62,9.74-8.3,18.38h-11.81v-27.16Z"/>
  <rect class="cls-1" x="576.26" y="168.6" width="10.63" height="36.6"/>
  <path class="cls-1" d="M688.44,124.91v25.39c0,2.59-9.59,1.69-11.81,1.77v-27.16h11.81Z"/>
  <rect class="cls-1" x="583.35" y="280.77" width="10.63" height="27.16"/>
  <rect class="cls-1" x="467.63" y="179.22" width="10.63" height="25.98"/>
  <rect class="cls-1" x="514.86" y="231.18" width="10.63" height="25.98"/>
  <path class="cls-1" d="M526.68,220.55c1.55,10.41-3.84,8.31-11.82,8.28v-8.28s11.82,0,11.82,0Z"/>
  <path class="cls-1" d="M479.45,168.59c1.55,10.41-3.84,8.31-11.82,8.28v-8.28s11.82,0,11.82,0Z"/>
  <rect class="cls-1" x="583.34" y="270.14" width="10.64" height="8.28"/>
  <rect class="cls-1" x="676.63" y="115.46" width="10.64" height="7.1"/>
  <path class="cls-1" d="M364.91,114.28l-9.26,60.54,50.56,36.87-50.58,36.85,9.27,61.74-60.56-10.47-36.85,50.6-36.82-50.63-61.78,10.5,10.5-61.78-50.63-36.81,50.58-36.82-10.44-61.78,61.73,10.46,36.85-50.58,36.87,50.56,60.55-9.26ZM263.34,153.25l1.18-59.04-26.01,34.83c-.02,3.55,21.41,20.21,24.83,24.21ZM271.63,153.25l24.5-24.19-25.68-33.67,1.18,57.86ZM209.04,128.46l-28.34-3.54,3.55,29.51c4.65-3.37,2.42-16.46,5.28-20.1,1.42-1.81,14.45-2.75,17.74-3.54,1.8-.43,2.07.81,1.77-2.34ZM354.27,124.91l-31.87,4.7,22.26,3.72c1.47.92,3.16,17.35,3.74,20.5.36,1.93-.77,2.04,2.32,1.77l3.54-30.69ZM249.18,153.24c.53-2.05-.84-2.36-1.76-3.54-1.59-2.06-14.39-16.02-15.49-16.24l-27.62,4.45c.33,2.03,2.34,2.06,3.81,2.67,12.37,5.19,28.24,8.03,41.05,12.66ZM330.66,137.91c-6.38,1.14-22.88-5.38-27.61-4.45-3.34.66-15.06,16.6-18.44,19.78l46.05-15.33ZM258.63,165.07l-61.4-22.44,24.21,60.19,37.19-37.75ZM336.56,142.63l-60.21,23.01,37.77,37.2,22.44-60.21ZM207.85,193.39l-14.15-44.86-4.82,28.7,18.96,16.16ZM341.28,150.88c-1.83-2.18-2.02.69-2.47,1.67-5.43,11.97-7.41,27.47-12.88,39.66,1.96,1.48,18.58-13.04,19.42-15.27.46-1.23-3.23-25.04-4.08-26.05ZM229.11,207.56h32.47c.13,0,1.77-1.65,1.77-1.77v-32.47l-34.24,34.24ZM305.86,207.56l-34.24-34.24v34.24h34.24ZM207.85,207.56c.53-2.05-.85-2.36-1.76-3.54-5.55-7.24-15.22-14.15-21.43-21.16l-34.68,25.3,57.86-.6ZM383.8,208.73l-33.86-25.81-2.2.91-21.79,23.14,57.85,1.75ZM207.85,215.83l-57.85-1.18,34.67,25.84c6.23-6.95,15.89-13.9,21.43-21.12.91-1.18,2.29-1.5,1.76-3.54ZM384.98,214.66l-59.03,1.75c4.84,3.05,20.31,24.28,24.2,24.26l34.83-26.01ZM263.35,250.07v-32.47c0-.13-1.65-1.77-1.77-1.77h-32.47c-.51,2.06.85,2.36,1.76,3.55,4.63,6.04,22.89,24.3,28.93,28.93,1.19.91,1.49,2.28,3.55,1.76ZM305.86,215.83h-32.47c-.13,0-1.77,1.65-1.77,1.77v32.47l34.24-34.24ZM197.24,281.95l61.37-24.2-37.17-37.17-24.2,61.37ZM314.11,220.55l-37.75,37.19,60.8,24.18-23.05-61.37ZM194.85,274.86l14.17-46.04c-6.77,6-14.2,11.37-19.87,18.53l5.7,27.51ZM341.28,274.87c-1.14-6.37,5.38-22.89,4.45-27.61-.26-1.34-13.4-13.03-15.66-14.9-1.33-1.1-1.91-2.87-4.13-2.35,4.49,12.81,7.5,28.75,12.66,41.05.61,1.47.64,3.48,2.67,3.81ZM354.27,298.48l-3.55-30.69c-4.94,3.27-2.96,18.08-5.23,21.33l-21.91,4.66c.72,1.66,5.97,1.91,7.83,2.18,7.54,1.1,15.29,1.57,22.86,2.52ZM212.57,293.77c-4.6-1.75-19.35-1.77-22.44-4.14-1.99-1.52-2.91-13.82-3.9-17.37-.34-1.22-.28-3.58-1.98-3.3l-3.55,29.52,22.86-2.52,9.01-2.19ZM330.65,284.33l-46.04-14.17,17.34,20.14,28.7-5.97ZM248,271.33l-43.68,14.15,27.51,4.55c1.27-.29,7.07-6.51,8.51-8.06.9-.97,8.49-9.9,7.65-10.64ZM263.35,271.33c-2.05-.53-2.36.85-3.54,1.76-7.11,5.45-12.64,14.78-20.71,19.48l-.58,1.74,26.01,34.87-1.18-57.85ZM271.6,329.18l24.53-34.84c-5.32-3.8-18.16-21.07-22.76-23-2.41-1.01-1.66,1.64-1.76,2.92-1.16,15.9-1.98,36.14-1.18,51.99.07,1.33-.77,3.24,1.17,2.92Z"/>
</svg>