<?xml version="1.0" encoding="UTF-8"?>
<svg id="Livello_1" data-name="Livello 1" xmlns="http://www.w3.org/2000/svg" viewBox="0 0 850.39 423.39">
  <defs>
    <style>
      .cls-1 {
        fill: #e98a98;
      }

      .cls-2 {
        fill: #2a2a2a;
      }
    </style>
  </defs>
  <path class="cls-1" d="M81.48,84.22l41.39,95.9h68.74v3.69h-17.74l29.56,69.34c5.81-16.99,14.96-33.42,21.07-50.17,5.53-15.17,3.78-20.13-13.67-19.16v-3.69h39.18c-.15.83.24,3.44,0,3.68-.27.26-5.81.64-7.4,1.1-5.22,1.52-7,3.53-9.72,8l-37.21,86.82-2.19-.77-24.77-55.31-22.88,55.74-2.22.3-40.7-95.87h-19.22v-3.69h17.74l-13.42-33.08c-9.15.58-20.2-1.19-29.12-.16-1.29.15-1.65.06-2.48,1.21-.95,1.33-5.82,13.37-6.55,15.59-4.94,15.13-.18,17.26,14.62,16.43v3.7s-39.18,0-39.18,0v-3.69c8.35.38,13.82-2.68,17.88-9.82l36.08-86.08h2.22ZM59.31,141.77h25.87l-12.2-30.99-13.67,30.99ZM152.07,183.82h-26.98l27.73,67.87,2.93-5.19,11.4-28.4-15.08-34.29Z"/>
  <path class="cls-2" d="M547.16,105.62v164.51h27.35v-85.58h-17.37c-1.08,0-1.49-4.04-1.11-4.43.71-.73,17.32.21,20.36.03,6.48-.39,11.57-1.6,17.34-4.46v94.43h30.31v-85.58h-17.74v-4.43h25.5c.31,0,4.97-.9,5.57-1.08,2.39-.72,3.58-2.94,5.89-3.35v21.39c5.89-8.14,12.28-16.73,22.19-20.27,11.76-4.2,32.08-1.92,38.74,9.99.75,1.35,3.37,8.1,3.37,9.17v74.14h16.63c1.13,0,1.3,3.37,1.11,4.43h-54.7v-4.43h17.74v-77.09c0-.97-1.36-5.79-1.85-7-5.12-12.64-24.05-5.37-31.41,1.84-2,1.96-11.83,15.8-11.83,17.7v64.55h15.89c1.13,0,1.3,3.37,1.11,4.43h-132.31v-16.23l-3.71,5.51c-28.51,32.17-70.93,2.66-72.46-34.62-1.6-39.08,43.11-77.12,72.34-38.27l3.83,6.88v-82.62h-17.37c-1.47,0-1.47-4.43,0-4.43h25.87c.33,0,5.4-1.72,6.07-2.06,1.82-.95,2.58-3.03,4.65-3.1ZM490.79,179.56c-5.73.96-10.19,5.29-12.51,10.38-5.88,12.88-5.68,52.2-2.47,66.19,5.94,25.92,39.53,20,48.81-.03,4.74-10.23,4.65-41.48,1.48-52.38-4.56-15.69-18.32-27.02-35.31-24.17Z"/>
  <path class="cls-2" d="M434.07,270.87h15.52v3.69h-34.74v-15.49c-3.82,5.03-6.82,9.68-12.33,13.15-25.76,16.2-56.5-6.2-61.99-33.04-7.91-38.73,28.2-84.15,65.84-54.65l8.47,12.57v-81.89h-17.74v-3.69h18.11c2.48,0,9.12-.93,11.62-1.68,2.74-.83,5.02-2.5,7.23-4.22v165.25ZM378.45,179.58c-6.12.88-10.94,5.61-13.26,11.11-5.79,13.74-5.98,56.93-.43,70.77,7.55,18.84,35.06,13.13,44.78-1.43,6.93-10.39,6.45-36.68,5.29-49.28-1.7-18.43-17.08-33.94-36.38-31.17Z"/>
  <path class="cls-2" d="M796.85,183.65c4.71-8.33,22.84-13.47,26.92-2.58,6.4,17.09-23.29,17.26-14.21-1.68-1.49-1.16-11.56,5.4-10.97,8.37.1.53,4.63,6.65,5.62,9.14,10.18,25.69-13.02,49.61-38.62,47.39-10.14-.88-13.89-6.66-25.71-2.03-10.78,4.22-12.41,19.53-.84,21.16,17.2,2.42,39.68-1.52,57.58.07,27.08,2.42,25.2,36.88,13.55,54.07-15.25,22.5-53.31,28.05-75.51,13.67-21.53-13.95-11.66-41.29,9.85-48.58l-8.65-2.79c-15.69-11.27-11.32-44.16,11.61-42.21.28-1.23-.4-1.49-1.12-2.2-8.88-8.6-15.02-11.91-14.43-26.24,1.12-27.21,33.56-43.02,56.7-29.96,2.21,1.25,6.18,5.56,8.23,4.39ZM765.02,179.56c-17.3,2.89-16.22,40.8-10.69,52.37,4.99,10.45,23.58,11.09,29.51,1.82,4.83-7.57,4.88-36.57,1.91-44.98-3.23-9.16-11.85-10.69-20.73-9.21ZM753.2,282.11c-14.88,2.31-20.55,16.77-18.95,30.36,4.33,36.63,82.56,25.77,77.54-18.37-.72-6.35-5.23-9.58-11.07-11.09-7.41-1.91-39.59-2.14-47.52-.91Z"/>
  <path class="cls-2" d="M269.97,217.75v32.09c0,1.87,1.99,9.14,2.83,11.19,2.85,7.03,9.21,11.38,16.77,12.03,16.84,1.46,30.43-8.11,36.41-23.39.71-1.82,1.37-6.77,2-7.6.69-.91,4.21-1.66,4.09.38-.66,11.91-11.36,26.17-22.03,31.14-48.86,22.78-81.83-44.73-48.58-83.89,24.01-28.28,59.96-12.22,67.89,20.04.33,1.35,1.95,8-.62,8h-58.76ZM269.97,213.32h37.33c1.5,0,1.14-5.09,1.1-6.27-.28-6.98-1.48-17.82-6.35-23.17-5.75-6.31-17.99-5.99-24.3-.79-3.93,3.24-7.78,12.44-7.78,17.32v12.91Z"/>
  <path class="cls-2" d="M212.32,168.32c-3.36,5.85-12.79,4.94-14.8-1.48-3.81,3.82-9.44,9.19-12.57,1.48-6.44,6.01-15.79,5.13-17.35-4.42-4.73,6.69-11.57,11.65-19.34,5.65l-3.2-6.38c-4.45,12.83-22.94,12.01-21.45-3.33.8-8.17,10.29-16.63,18.68-14.95,8.53,1.71,3.95,11.26-.58,7.22-2.13-1.9.63-4.47-1.49-5.91-8.55.5-12.42,15.84-10.37,22.17,1.47,4.51,7.86,1.56,10.38-.78,5.75-5.34,5.66-13.22,10.7-18.1,3.29-3.19,8.92-5.41,13.53-4.59,6.61,1.18,5.24,10.24-.19,7.6-3.38-1.64,1.37-6.66-3.15-6.17-7.9.87-12.88,21.39-7.96,23.86,4.15,2.08,8.7-2.32,11.11-5.17,5.25-6.2,3.39-13.01,12.33-17.94,4.17-2.3,10.87-4.63,12.8,1.33,1.96-2.91,3.24-2.34,6.64-2.21.86.8-6.23,19.21-6.62,22.54-.19,1.66,1.26,1.33,2.4.91.41-.15,4.97-4.36,4.97-4.7,0-1.4-.85-2.44-.58-4.9,1.05-9.36,14.9-21.59,22.37-11.66,1.14.05,4.57-15.91,5.56-18.05l-3.7-1.47c2.47-2.06,6.55-.73,9.6-1.85l-11.82,42.78c7.06,0,5.99-6.5,6.97-11.11,1.77-8.27,15.74-19.43,22.19-11.73,6.51,7.77-9.64,14.43-15.88,11.36-2.82,7.99.27,16.55,9.58,10.32,1.85-1.24,3.43-4.88,5.96-3.64-4.56,5.11-8.6,8.87-16.06,6.44-3.36-1.1-3.44-4.04-6.1-4.59-1.35,5.37-11.06,8.4-11.11.73-.2-.23-1.01.58-1.47.74,1.18-2.05,5.68-14.72,5.71-16.74.03-2.27-2.36-5.18-4.65-5.39-6.48-.59-10.92,10.71-11.4,15.86-1.05,11.19,2.58,8.95,10.34,6.27ZM182.55,146.32c-7.11,1.47-16.1,27.45-3.31,24.04,4.55-1.22,9.25-13.96,9.86-18.24.5-3.51-2.92-6.54-6.55-5.79ZM243.18,147.11c-4.44-4.43-11.19,5.38-11.65,9.4,5.59,4.22,16.21-4.85,11.65-9.4Z"/>
  <path class="cls-2" d="M259.62,144.72l-1.47,5.16,5.4-3.83c5.52-2.56,9.81-1.48,9.39,5.31,1.36-.94,1.81-2.43,3.34-3.67,1.95-1.58,4.71-3.22,7.3-2.96,11.9,1.18-2.12,18.96.08,25.08,5.72.02,10.51-16.56,11.38-21.17.28-1.49-1.23-.77-1.4-.97-.91-1.1,6.98-2.7,8.12-2.94l-7.34,23.88c.68,2.56,4.32.18,5.49-1.02,2.54-2.59.67-7.1,2.45-11.58,2.73-6.89,15.98-16.93,20.85-7.6,1.96-2.91,3.24-2.34,6.64-2.21l-6.66,23.22c2.61,1.46,5.41-1.71,5.94-4.04,4.19-.2-1.83,5.51-2.56,5.93-6.38,3.67-7.65-3.77-8.17-3.73-2.23,3.98-7.13,5.46-11.5,4.1-1.89-.59-3.21-3.37-4.75-3.37-1.43,0-4.43,3.43-7.49,3.67-4.41.36-5.25-3.63-5.82-3.65-.39-.01-2.72,3.61-6.66,3.69-9.56.19.36-17.66.96-21.96,1.31-9.39-9.06,1.77-10.96,5.32s-3.47,13.44-4.76,15.17c-1,1.34-4.04.55-5.56.72-.97-.95,6.37-19.92,5.94-23.96-.27-2.59-4.25.68-5.22,1.45-6.99,5.55-8.56,14.22-10.36,22.49l-5.88.03,6.65-23.6-2.96-1.47c3.37.45,6.4-.77,9.6-1.48ZM316.34,146.31c-6.15,1.11-11.43,17.87-9.05,22.76.89,1.84,3.95,1.77,5.74,1.29,6.12-1.64,15.35-26.23,3.31-24.05Z"/>
  <path class="cls-2" d="M580.97,132.35c19.4-3.59,19.25,26.22.61,23.38-12-1.83-12.11-21.26-.61-23.38Z"/>
  <path class="cls-2" d="M357.93,168.32c-5.74,9.62-20.25,1.02-14.93-12.32,2.99-7.49,15.26-16.44,21.21-7.6.85-.35,5.3-15.4,5.54-17.36.29-2.39-4.78.07-3.68-2.18,1.01-2.05,7.4-.53,9.6-1.85l-11.81,41.7c-.44,3.39,6.39-2.28,5.16.7-1.47,3.57-10.58,4.22-9.61-1.83-.2-.23-1.02.58-1.47.74,1.1-1.84,5.81-14.89,5.89-16.67.1-2.55-2.31-5.3-4.83-5.45-8.01-.48-12.55,15.53-11.38,21.74.97,5.14,7.35,1.42,10.33.39Z"/>
  <path class="cls-2" d="M409.67,127.01c-3.05,14.48-8.94,28.35-11.82,42.78,3.69.63,5.29-3.2,7.76-5.16,1.1,6.59-13.62,11.29-12.92,1.93l11.06-36.25-3.69-.36v-2.21s9.61-.74,9.61-.74Z"/>
  <path class="cls-2" d="M377.16,157.99c-3.99,15.65,6.39,15.72,14.77,5.91.13,3.13-5.22,7.39-7.92,7.94-17.41,3.6-17.33-21.02-1.14-26.22,5.91-1.9,13.39-.52,10.95,7.25-1.62,5.15-12.21,7.33-16.66,5.12ZM388.8,147.11c-3.86-3.87-11.98,4.93-10.6,9.45,5.17,3.82,15.16-4.88,10.6-9.45Z"/>
  <path class="cls-2" d="M305.35,129.33c1.75,2.71-3.06,9-5.88,5.48-2.55-3.18,4.01-8.39,5.88-5.48Z"/>
</svg>