<?xml version="1.0" encoding="UTF-8"?>
<svg id="Livello_1" data-name="Livello 1" xmlns="http://www.w3.org/2000/svg" viewBox="0 0 736.91 535.93">
  <defs>
    <style>
      .cls-1 {
        fill: snow;
        fill-rule: evenodd;
      }
    </style>
  </defs>
  <path class="cls-1" d="M636.42,0c55.5,0,100.49,44.99,100.49,100.49v334.96c0,55.5-44.99,100.49-100.49,100.49H100.49c-55.5,0-100.49-44.99-100.49-100.49V100.49C0,44.99,44.99,0,100.49,0h535.93ZM611.39,66.99H125.51l222.18,175.41c12.17,9.61,29.34,9.61,41.51,0l222.18-175.41ZM66.99,106.14v329.3c0,18.5,15,33.5,33.5,33.5h535.93c18.5,0,33.5-15,33.5-33.5V106.14l-239.2,188.84c-36.51,28.82-88.02,28.82-124.53,0L66.99,106.14Z"/>
</svg>