<?xml version="1.0" encoding="UTF-8"?>
<svg id="Livello_1" xmlns="http://www.w3.org/2000/svg" version="1.1" viewBox="0 0 850.4 850.4">
  <!-- Generator: Adobe Illustrator 29.7.0, SVG Export Plug-In . SVG Version: 2.1.1 Build 138)  -->
  <defs>
    <style>
      .st0 {
        fill: snow;
      }
    </style>
  </defs>
  <path class="st0" d="M592.4,498.4c-9.4-4.4-54.4-26.5-62.8-30-8.4-3.4-14.3-4.4-20.8,4.9-6.4,9.3-23.7,29.5-29.2,35.9-5.4,6.4-10.4,6.9-19.8,0-27-10.8-51.9-26.1-73.7-45.2-19.7-18.4-36.4-39.8-49.5-63.4-5.4-8.8,0-13.8,4-18.7s8.9-10.3,13.9-15.7c3.6-4.7,6.6-9.8,8.9-15.2,2.5-5.1,2.5-11.1,0-16.2,0-4.4-20.8-49.1-28.7-67.3-7.9-18.2-14.8-15.7-20.3-15.7h-19.8c-9.4.4-18.3,4.4-24.7,11.3-20.9,19.8-32.6,47.4-32.2,76.2,2.5,34.9,15.4,68.2,37.1,95.8,39.7,58.6,94.1,106,157.8,137.6,21.8,9.3,38.6,14.7,51.9,19.2,18.8,5.6,38.6,6.8,57.9,3.4,25.9-5.2,48.5-20.9,62.3-43.2,5.7-13.7,7.6-28.6,5.4-43.2-2.5-3.4-8.4-5.9-17.8-10.3Z"/>
  <path class="st0" d="M684.9,163.8c-69.1-69.3-163.5-107.9-261.7-107.1C220,57.8,56.1,222.3,57.1,424.2c.3,63.3,17.2,125.5,49,180.4l-49.5,189.2,194.9-49.1c53.9,29.1,114.3,44.3,175.6,44.2h-4c203.3,1.3,369.1-161.3,370.4-363.2.6-98.2-38.6-192.6-108.7-261.8h0ZM423.3,725.9c-54.9,0-108.7-14.7-155.8-42.7l-10.9-6.4-115.8,30,30.7-112-6.9-11.3c-89.1-142.5-45-329.7,98.4-418.1,120.2-74.1,275.9-56.7,376.5,42.3,57.6,56.8,89.9,134.1,89.5,214.7-.3,167.6-137,303.4-305.7,303.6Z"/>
</svg>